<?xml version="1.0" encoding="UTF-8"?>
<svg width="700pt" height="700pt" version="1.1" viewBox="0 0 700 700" xmlns="http://www.w3.org/2000/svg">
 <g>
  <path d="m650.88 432.14-227.3-389.81c-15.285-26.148-43.297-42.223-73.586-42.223s-58.301 16.074-73.586 42.223l-227.3 389.81c-15.207 26.34-15.227 58.781-0.058594 85.137 15.172 26.359 43.234 42.637 73.645 42.719h454.59c30.41-0.082031 58.473-16.359 73.645-42.719 15.168-26.355 15.148-58.797-0.058594-85.137zm-51.992 55.402v0.003906c-2.1211 3.8516-5.2539 7.0508-9.0586 9.2539-3.8047 2.2031-8.1406 3.3242-12.535 3.2461h-454.59c-8.9219-0.019531-17.156-4.7969-21.605-12.527-4.4531-7.7305-4.4492-17.25 0.011719-24.977l227.3-389.81c4.5156-7.543 12.66-12.156 21.453-12.156 8.7891 0 16.934 4.6133 21.449 12.156l227.3 389.81c2.2695 3.7109 3.4922 7.9688 3.543 12.32 0.050781 4.3516-1.0742 8.6328-3.2578 12.398z"/>
  <path d="m391.77 413.68c0 23.066-18.699 41.766-41.766 41.766s-41.766-18.699-41.766-41.766c0-23.066 18.699-41.766 41.766-41.766s41.766 18.699 41.766 41.766"/>
  <path d="m350 165.36c-14.168 0-27.754 5.625-37.77 15.645-10.016 10.016-15.645 23.602-15.645 37.77v4.5469-0.003906c0.27734 3.1719 0.84766 6.3125 1.7031 9.3789l24.719 90.918c1.5898 5.9141 5.0508 11.156 9.8633 14.945 4.8125 3.7891 10.723 5.9219 16.844 6.0781 6.1992-0.19141 12.164-2.4062 16.988-6.3047 4.8203-3.8984 8.2344-9.2656 9.7188-15.289l24.719-90.352v0.003906c0.71875-2.9883 1.1953-6.0273 1.4219-9.0938v-4.8281c0-14.02-5.5078-27.48-15.344-37.473-9.832-9.9922-23.199-15.719-37.219-15.941z"/>
 </g>
</svg>
