<?xml version="1.0" encoding="UTF-8"?>
<svg width="700pt" height="700pt" version="1.1" viewBox="0 0 700 700" xmlns="http://www.w3.org/2000/svg">
 <g>
  <path d="m560.88 246.57-10.852-116.73c-4.8984-53.723-49.875-94.848-103.77-94.848h-190.23c-55.125 0-101.32 42-106.4 96.949l-10.676 114.62c-0.17578 1.9258-0.17578 3.6758-0.17578 5.6016v144.55c0 33.602 27.301 60.898 60.898 60.898h300.48c33.602 0 60.898-27.301 60.898-60.898v-144.55c0.17969-1.9258 0.003906-3.8516-0.17188-5.6016zm-350.52-115.32c1.2227-14.699 13.648-25.898 28.348-25.898h222.6c14.699 0 27.125 11.375 28.352 26.074l8.2266 93.449h-295.75zm3.6719 253.75c-15.227 0-27.648-12.426-27.648-27.648 0-15.227 12.426-27.648 27.648-27.648 15.227 0 27.648 12.426 27.648 27.648 0.003906 15.223-12.422 27.648-27.648 27.648zm278.78 4.1992c-15.227 0-27.648-12.426-27.648-27.648 0-15.227 12.426-27.648 27.648-27.648 15.227 0 27.648 12.426 27.648 27.648 0 15.223-12.426 27.648-27.648 27.648z"/>
  <path d="m186.2 512.23c0 7 5.6016 12.773 12.773 12.773h30.801c7 0 12.773-5.6016 12.773-12.773v-43.398l-56.348-0.003906z"/>
  <path d="m464.8 512.23c0 7 5.6016 12.773 12.773 12.773h30.801c7 0 12.773-5.6016 12.773-12.773v-43.398h-56.176l0.003906 43.398z"/>
 </g>
</svg>
