<svg id="image" xmlns="http://www.w3.org/2000/svg" viewBox="0 0 335.34 322.64"><defs><style>.cls-1,.cls-10,.cls-13,.cls-14,.cls-9{fill:none;stroke-linecap:round;}.cls-1{stroke:#fafaf0;stroke-width:4.25px;}.cls-2{fill:#f5a97b;}.cls-3{fill:#f28c66;}.cls-4{fill:#f6921e;}.cls-5{fill:#ffb533;}.cls-6{fill:#f1e6f4;}.cls-7{fill:#1e193d;}.cls-8{fill:#36364a;}.cls-9{stroke:#f6921e;}.cls-10,.cls-9{stroke-width:5.3px;}.cls-10{stroke:#ffb533;}.cls-11{fill:#f7fcef;}.cls-12{fill:#275e47;}.cls-13,.cls-14{stroke:#f7fcef;stroke-linejoin:round;}.cls-13{stroke-width:2.3px;}.cls-14{stroke-width:1.93px;}</style></defs><line class="cls-1" x1="49.09" y1="201.98" x2="71.3" y2="208.18"/><line class="cls-1" x1="5.83" y1="189.92" x2="29.5" y2="196.52"/><line class="cls-1" x1="34.64" y1="165.65" x2="76.56" y2="190.18"/><line class="cls-1" x1="72.28" y1="158.94" x2="82.67" y2="169.41"/><line class="cls-1" x1="43.03" y1="129.44" x2="58.06" y2="144.59"/><line class="cls-1" x1="78.79" y1="119.61" x2="90.98" y2="141.03"/><line class="cls-1" x1="17.14" y1="225.37" x2="66.01" y2="226.17"/><line class="cls-1" x1="45.44" y1="250.48" x2="59.94" y2="246.94"/><line class="cls-1" x1="4.63" y1="260.44" x2="25.62" y2="255.32"/><line class="cls-1" x1="29.65" y1="287.22" x2="51.61" y2="275.32"/><path class="cls-2" d="M208.11,237.45l14.67,1a22.47,22.47,0,0,1,18.11,11.33l2.89,5.15a21.5,21.5,0,0,0,13.12,10.18l24,6.53-12.22,42.69-23.58-6.42a30.67,30.67,0,0,0-11.05-.84,75.78,75.78,0,0,1-27.14-2.31L189.48,300Z" transform="translate(-92.51 -54.25)"/><path class="cls-3" d="M206.92,304.76,189.59,300l-.09-.14,9.1-44.74a18,18,0,0,1,11.05-2.67c9,.68,15.87,7.54,15.25,15.31l-.54,6.81a39.63,39.63,0,0,1-13.48,26.68Z" transform="translate(-92.51 -54.25)"/><path class="cls-4" d="M189.94,317.1c7.58-23.55,12.11-40.89,12.32-83h18.39c.21,42.15,4.8,59.43,12.39,83Z" transform="translate(-92.51 -54.25)"/><path class="cls-5" d="M102.13,96.75a46.94,46.94,0,0,1,37.3-18H283.57a47,47,0,0,1,37.31,18,44.5,44.5,0,0,1,7.89,39.91,46.4,46.4,0,0,1-24.53,29.05L266.34,184a10.62,10.62,0,0,0-5,14.32,10.83,10.83,0,0,0,6.32,5.43,11.12,11.12,0,0,0,8.4-.52,6.17,6.17,0,0,1,8.17,2.73,5.88,5.88,0,0,1-2.79,8,23.56,23.56,0,0,1-10.21,2.33A23.8,23.8,0,0,1,263.7,215a22.89,22.89,0,0,1-13.33-11.46,22.43,22.43,0,0,1,10.56-30.26L298.82,155A34.4,34.4,0,0,0,317,133.49,32.94,32.94,0,0,0,311.16,104a34.73,34.73,0,0,0-27.59-13.33H139.44A34.73,34.73,0,0,0,111.85,104,32.91,32.91,0,0,0,106,133.49,34.37,34.37,0,0,0,124.19,155l37.89,18.27a22.44,22.44,0,0,1,10.56,30.26A22.89,22.89,0,0,1,159.31,215a23.91,23.91,0,0,1-7.54,1.23,23.55,23.55,0,0,1-10.2-2.33,5.9,5.9,0,0,1-2.8-8,6.18,6.18,0,0,1,8.18-2.73,11.12,11.12,0,0,0,8.4.52,10.86,10.86,0,0,0,6.32-5.43,10.62,10.62,0,0,0-5-14.32l-37.9-18.28a46.41,46.41,0,0,1-24.53-29A44.51,44.51,0,0,1,102.13,96.75Z" transform="translate(-92.51 -54.25)"/><path class="cls-4" d="M162.08,173.3a22.44,22.44,0,0,1,10.56,30.26,22.81,22.81,0,0,1-5.93,7.38q-3.12-5.41-6-11.14a11.24,11.24,0,0,0,.92-1.49,10.62,10.62,0,0,0-5-14.32L153,182.2q-3.07-7.81-5.68-16Z" transform="translate(-92.51 -54.25)"/><path class="cls-4" d="M260.93,173.3l14.8-7.14q-2.6,8.22-5.68,16L266.34,184a10.62,10.62,0,0,0-5,14.32,11.24,11.24,0,0,0,.92,1.49c-1.89,3.82-3.89,7.52-6,11.13a22.35,22.35,0,0,1,4.64-37.63Z" transform="translate(-92.51 -54.25)"/><path class="cls-4" d="M139.44,90.64a36.15,36.15,0,0,0-5.33.4q-.3-6-.38-12a48.87,48.87,0,0,1,5.7-.34H283.57a49,49,0,0,1,5.71.34c-.07,4-.19,8-.39,12a36.12,36.12,0,0,0-5.32-.4H139.44Z" transform="translate(-92.51 -54.25)"/><path class="cls-5" d="M181.9,219.86c-24.52-35-40.1-87.43-40.1-146H281.2c0,58.55-15.57,110.94-40.1,146C226.9,240.14,196.1,240.14,181.9,219.86Z" transform="translate(-92.51 -54.25)"/><path class="cls-6" d="M267.44,73.88c0,48.89-11,94.24-31.36,128.57a7.76,7.76,0,0,1-10.44,2.72A7.35,7.35,0,0,1,222.85,195c19-32.09,29.33-74.81,29.31-121.1Z" transform="translate(-92.51 -54.25)"/><path class="cls-5" d="M185,317.1H238a12.42,12.42,0,0,1,12.58,12.27h-78.1A12.42,12.42,0,0,1,185,317.1Z" transform="translate(-92.51 -54.25)"/><rect class="cls-7" x="161.13" y="329.37" width="100.65" height="47.53" transform="translate(330.41 652.01) rotate(180)"/><polygon class="cls-8" points="80.95 275.12 119.81 275.12 168.54 322.64 129.67 322.64 80.95 275.12"/><polygon class="cls-8" points="137.77 275.12 169.27 305.84 169.27 317.39 125.94 275.12 137.77 275.12"/><polygon class="cls-8" points="68.62 283.8 108.45 322.64 91.31 322.64 68.62 300.51 68.62 283.8"/><path class="cls-5" d="M228.62,317.1H238a12.42,12.42,0,0,1,12.58,12.27h-78.1A12.42,12.42,0,0,1,185,317.1h43.6Z" transform="translate(-92.51 -54.25)"/><ellipse class="cls-9" cx="118.99" cy="89.44" rx="20.77" ry="20.26"/><line class="cls-9" x1="182.97" y1="43.07" x2="56.01" y2="43.07"/><line class="cls-9" x1="181.61" y1="56.21" x2="57.36" y2="56.21"/><line class="cls-10" x1="177.54" y1="43.07" x2="155.13" y2="43.07"/><line class="cls-10" x1="176.18" y1="56.21" x2="153.78" y2="56.21"/><rect class="cls-7" x="181.05" y="345.82" width="60.92" height="23.32" transform="translate(330.5 660.69) rotate(180)"/><rect class="cls-5" x="181.05" y="341.47" width="60.92" height="23.32" transform="translate(330.5 652.01) rotate(180)"/><path class="cls-6" d="M240.12,326.41a6.44,6.44,0,0,0-6.52-6.35H223.33a6.43,6.43,0,0,0-6.51,6.35Z" transform="translate(-92.51 -54.25)"/><path class="cls-4" d="M189.48,300l11.18-54.95,8,2.19a8.39,8.39,0,0,1,1.17,7,8.42,8.42,0,0,1-2.21,3.69,8.72,8.72,0,0,1,4.95,2.82,8.32,8.32,0,0,1,2.07,6.2,8.42,8.42,0,0,1-.29,1.64,8.55,8.55,0,0,1-4,5,8.4,8.4,0,0,1,3.18,7.24,7.53,7.53,0,0,1-.3,1.64,8.53,8.53,0,0,1-4,5,8.41,8.41,0,0,1,3.17,7.24,8.16,8.16,0,0,1-.29,1.64,8.74,8.74,0,0,1-9.09,6.2l-5.27-.4Z" transform="translate(-92.51 -54.25)"/><path class="cls-2" d="M188.85,272.05l16.56,1.25a7,7,0,0,1,6.59,7.5h0a7.1,7.1,0,0,1-7.69,6.42L187.74,286a7,7,0,0,1-6.58-7.5h0A7.1,7.1,0,0,1,188.85,272.05Z" transform="translate(-92.51 -54.25)"/><path class="cls-2" d="M192,286.3l12.27.92a7,7,0,0,1,6.58,7.5h0a7.1,7.1,0,0,1-7.69,6.43l-12.26-.93a7,7,0,0,1-6.59-7.5h0A7.11,7.11,0,0,1,192,286.3Z" transform="translate(-92.51 -54.25)"/><path class="cls-2" d="M186.76,243.88,202,245a7,7,0,0,1,6.58,7.5h0a7.1,7.1,0,0,1-7.69,6.42l-15.23-1.15a7,7,0,0,1-6.59-7.5h0A7.11,7.11,0,0,1,186.76,243.88Z" transform="translate(-92.51 -54.25)"/><path class="cls-2" d="M185.66,257.8l20.86,1.58a7,7,0,0,1,6.58,7.5h0a7.1,7.1,0,0,1-7.69,6.42l-20.86-1.57a7,7,0,0,1-6.58-7.5h0A7.1,7.1,0,0,1,185.66,257.8Z" transform="translate(-92.51 -54.25)"/><path class="cls-4" d="M193.83,285,208.28,286a1.49,1.49,0,0,1,1.39,1.59,1.37,1.37,0,0,1,0,.28h0a1.52,1.52,0,0,1-1.46,1.08h-.11L193.6,287.9a1.52,1.52,0,0,1-1-.52,1.38,1.38,0,0,1-.36-1.07,1.45,1.45,0,0,1,.52-1A1.55,1.55,0,0,1,193.83,285Z" transform="translate(-92.51 -54.25)"/><path class="cls-4" d="M191.74,270.8l17.49,1.32a1.5,1.5,0,0,1,1.4,1.59,1.27,1.27,0,0,1-.06.28h0a1.51,1.51,0,0,1-1.46,1.07H209l-17.49-1.32a1.51,1.51,0,0,1-1-.51,1.45,1.45,0,0,1,.16-2.08A1.54,1.54,0,0,1,191.74,270.8Z" transform="translate(-92.51 -54.25)"/><path class="cls-4" d="M187.6,256.94a1.51,1.51,0,0,1,1.1-.35l19.4,1.46a1.49,1.49,0,0,1,1.39,1.59,1.37,1.37,0,0,1-.05.28h0A1.52,1.52,0,0,1,208,261h-.12l-19.39-1.47a1.51,1.51,0,0,1-1-.51,1.42,1.42,0,0,1-.36-1.07A1.45,1.45,0,0,1,187.6,256.94Zm21.14,2.79Z" transform="translate(-92.51 -54.25)"/><path class="cls-4" d="M205.51,245.28l34.85,9.49-4.07,36.34-1.12-.16a24.32,24.32,0,0,1-16.82-10.48,23.09,23.09,0,0,1-3-19.18l.61-2.12-.73-.2a15.14,15.14,0,0,1-18.26,9.43,5.41,5.41,0,0,1-3.33-2.54,5.2,5.2,0,0,1-.51-4.06L198,244.74Z" transform="translate(-92.51 -54.25)"/><path class="cls-2" d="M217.89,262l1.32-4.63-5.84-1.59-.5,1.74a12.41,12.41,0,0,1-15.24,8.38h0a2.74,2.74,0,0,1-2-3.39L201.54,242a6.34,6.34,0,0,1,6.57-4.52l14.67,1a22.47,22.47,0,0,1,18.11,11.33l7.25,12.94-7.77,27.15-7.56-2.06A20.9,20.9,0,0,1,217.89,262Z" transform="translate(-92.51 -54.25)"/><path class="cls-4" d="M213.56,255.22a11,11,0,0,0-.17-6.67,1.44,1.44,0,0,1,.89-1.83,1.52,1.52,0,0,1,2,.92,13.83,13.83,0,0,1,.22,8.37l-.87,3.05-2.92-.8Z" transform="translate(-92.51 -54.25)"/><polygon class="cls-3" points="188.39 217.39 176.17 260.08 149.49 252.81 168.7 212.03 188.39 217.39"/><polygon class="cls-11" points="184.68 213.55 170.96 261.49 158.59 258.12 172.31 210.18 184.68 213.55"/><path class="cls-12" d="M276.28,264.89l151.58,41.28v63L265.13,324.86a5.64,5.64,0,0,1-4-7Z" transform="translate(-92.51 -54.25)"/><ellipse class="cls-8" cx="179.67" cy="262.26" rx="4.55" ry="4.44"/><path class="cls-8" d="M283.46,324.19a4.58,4.58,0,0,0,5.61-3.08,4.43,4.43,0,0,0-3.16-5.47,4.57,4.57,0,0,0-5.61,3.08A4.43,4.43,0,0,0,283.46,324.19Z" transform="translate(-92.51 -54.25)"/><path class="cls-8" d="M296,327.59a4.57,4.57,0,0,0,5.61-3.08,4.43,4.43,0,0,0-3.16-5.47,4.57,4.57,0,0,0-5.61,3.08A4.43,4.43,0,0,0,296,327.59Z" transform="translate(-92.51 -54.25)"/><line class="cls-13" x1="57.42" y1="72.52" x2="54.34" y2="77.72"/><line class="cls-13" x1="50.13" y1="84.83" x2="47.05" y2="90.04"/><line class="cls-13" x1="62.61" y1="81.28" x2="56.44" y2="81.28"/><line class="cls-13" x1="48.03" y1="81.28" x2="41.87" y2="81.28"/><line class="cls-13" x1="57.42" y1="90.04" x2="54.34" y2="84.83"/><line class="cls-13" x1="50.13" y1="77.72" x2="47.05" y2="72.52"/><line class="cls-13" x1="223" y1="171.09" x2="219.92" y2="176.29"/><line class="cls-13" x1="215.72" y1="183.4" x2="212.64" y2="188.61"/><line class="cls-13" x1="228.19" y1="179.85" x2="222.03" y2="179.85"/><line class="cls-13" x1="213.61" y1="179.85" x2="207.45" y2="179.85"/><line class="cls-13" x1="223" y1="188.61" x2="219.92" y2="183.4"/><line class="cls-13" x1="215.72" y1="176.29" x2="212.64" y2="171.09"/><line class="cls-13" x1="200.84" y1="137.02" x2="208.51" y2="137.02"/><line class="cls-13" x1="204.67" y1="133.28" x2="204.67" y2="140.76"/><line class="cls-13" x1="74.45" y1="293.25" x2="82.12" y2="293.25"/><line class="cls-13" x1="78.28" y1="289.51" x2="78.28" y2="296.99"/><line class="cls-13" x1="157.19" y1="6.44" x2="162.61" y2="1.15"/><line class="cls-13" x1="157.19" y1="1.15" x2="162.61" y2="6.44"/><path class="cls-13" d="M130.68,63.62a4.52,4.52,0,1,1-4.51-4.41A4.46,4.46,0,0,1,130.68,63.62Z" transform="translate(-92.51 -54.25)"/><path class="cls-13" d="M263.37,237.44a4.52,4.52,0,1,1-4.52-4.41A4.46,4.46,0,0,1,263.37,237.44Z" transform="translate(-92.51 -54.25)"/><path class="cls-14" d="M111.06,187l-1.42,3.73a6.72,6.72,0,0,1-4,3.89L101.83,196l3.82,1.39a6.72,6.72,0,0,1,4,3.89l1.42,3.72,1.42-3.72a6.68,6.68,0,0,1,4-3.89l3.82-1.39-3.82-1.38a6.68,6.68,0,0,1-4-3.89Z" transform="translate(-92.51 -54.25)"/><path class="cls-14" d="M297.65,110.29,296.23,114a6.7,6.7,0,0,1-4,3.89l-3.82,1.39,3.82,1.38a6.7,6.7,0,0,1,4,3.89l1.42,3.73,1.42-3.73a6.7,6.7,0,0,1,4-3.89l3.82-1.38-3.82-1.39a6.7,6.7,0,0,1-4-3.89Z" transform="translate(-92.51 -54.25)"/></svg>