<?xml version="1.0" encoding="UTF-8"?>
<svg width="700pt" height="700pt" version="1.1" viewBox="0 0 700 700" xmlns="http://www.w3.org/2000/svg">
 <path d="m582.12 223.01c-2.7812-8.293-9.957-14.332-18.594-15.652l-132.8-20.305-59.609-126.96c-3.8477-8.207-12.074-13.422-21.121-13.422s-17.285 5.2422-21.121 13.422l-59.602 126.96-132.8 20.301c-8.6484 1.3242-15.828 7.3594-18.605 15.656-2.7812 8.293-0.68359 17.43 5.4219 23.699l96.773 99.191-22.879 140.34c-1.4453 8.8203 2.2773 17.684 9.5938 22.832 7.293 5.1289 16.918 5.6953 24.723 1.3438l118.49-65.512 118.46 65.512c3.5352 1.957 7.4297 2.9141 11.305 2.9141 4.7148 0 9.4336-1.4336 13.445-4.2617 7.293-5.1484 11.027-14.012 9.5938-22.832l-22.879-140.34 96.773-99.191c6.1055-6.2656 8.2031-15.402 5.4219-23.695z"/>
</svg>
