<svg xmlns="http://www.w3.org/2000/svg" width="31.041" height="16" viewBox="0 0 31.041 16">
  <defs>
    <style>
      .cls-1 {
        fill: #f3af62;
        opacity: 0.77;
      }
    </style>
  </defs>
  <path id="eye-1103592" class="cls-1" d="M15.407,195.62C10.4,195.631,5.266,197.93,0,202.9c10.347,12.16,20.694,11.074,31.041,0-4.94-4.57-9.982-7.135-15.149-7.276q-.242-.007-.485-.006Zm.032,2.2q.176,0,.352,0c3.748.1,7.406,1.964,10.99,5.278-7.506,8.034-15.012,8.821-22.519,0,3.82-3.607,7.541-5.275,11.177-5.283Zm.121,1.2a4.683,4.683,0,1,0,4.517,3.513l-4.517,1.153s1.948-2.706,2.739-3.771a4.666,4.666,0,0,0-2.739-.9Z" transform="translate(0 -195.62)"/>
</svg>
