<svg id="Groupe_19" data-name="Groupe 19" xmlns="http://www.w3.org/2000/svg" xmlns:xlink="http://www.w3.org/1999/xlink" width="21.394" height="20.319" viewBox="0 0 21.394 20.319">
  <defs>
    <style>
      .cls-1 {
        fill: #4a66ac;
      }

      .cls-2 {
        clip-path: url(#clip-path);
      }

      .cls-3 {
        fill: #fff;
      }
    </style>
    <clipPath id="clip-path">
      <rect id="Rectangle_14" data-name="Rectangle 14" class="cls-1" width="21.394" height="20.319"/>
    </clipPath>
  </defs>
  <g id="Groupe_18" data-name="Groupe 18" class="cls-2">
    <path id="Tracé_52" data-name="Tracé 52" class="cls-1" d="M30.654,19.808a10.078,10.078,0,0,1-10.327,9.808A10.078,10.078,0,0,1,10,19.808,10.078,10.078,0,0,1,20.327,10a10.078,10.078,0,0,1,10.327,9.808" transform="translate(-9.63 -9.649)"/>
    <path id="Tracé_55" data-name="Tracé 55" class="cls-3" d="M10.327,0A10.078,10.078,0,0,1,20.654,9.808a10.078,10.078,0,0,1-10.327,9.808A10.078,10.078,0,0,1,0,9.808,10.078,10.078,0,0,1,10.327,0Z" transform="translate(0.37 0.351)"/>
    <path id="Tracé_53" data-name="Tracé 53" class="cls-1" d="M204.5,146.187h2.1v2.524h-2.1l.122,7.79a10.966,10.966,0,0,1-3.763-.164l.261-7.692h-1.217q.008-1.209.016-2.419H201.1c0-.271.014-.67.045-1.151a8.919,8.919,0,0,1,.113-1.218A3.137,3.137,0,0,1,203,141.712a6.438,6.438,0,0,1,1.976-.108c.655.009,1.2.04,1.577.066q.023,1.229.045,2.458h-.913a1.265,1.265,0,0,0-.223.02s-.045.008-.087.019a1.335,1.335,0,0,0-.825.786,2.68,2.68,0,0,0-.054.654c-.006.24,0,.44.006.581" transform="translate(-192.518 -136.625)"/>
    <path id="Tracé_54" data-name="Tracé 54" class="cls-1" d="M204.5,146.187h2.1v2.524h-2.1l.122,7.79a10.966,10.966,0,0,1-3.763-.164l.261-7.692h-1.217q.008-1.209.016-2.419H201.1c0-.271.014-.67.045-1.151a8.919,8.919,0,0,1,.113-1.218A3.137,3.137,0,0,1,203,141.712a6.438,6.438,0,0,1,1.976-.108c.655.009,1.2.04,1.577.066q.023,1.229.045,2.458h-.913a1.265,1.265,0,0,0-.223.02s-.045.008-.087.019a1.335,1.335,0,0,0-.825.786,2.68,2.68,0,0,0-.054.654C204.493,145.847,204.5,146.047,204.5,146.187Z" transform="translate(-192.518 -136.625)"/>
  </g>
</svg>
