<svg id="Groupe_207" data-name="Groupe 207" xmlns="http://www.w3.org/2000/svg" xmlns:xlink="http://www.w3.org/1999/xlink" width="79.751" height="180.299" viewBox="0 0 79.751 180.299">
  <defs>
    <style>
      .cls-1 {
        fill: none;
      }

      .cls-2 {
        clip-path: url(#clip-path);
      }

      .cls-3 {
        fill: #163560;
      }

      .cls-4 {
        fill: #ffb27d;
      }

      .cls-5 {
        fill: #4f4f4e;
      }

      .cls-6 {
        fill: #1c4b8e;
      }

      .cls-7 {
        fill: #f2ccaa;
      }

      .cls-8 {
        fill: #25513b;
      }

      .cls-9 {
        fill: #275e47;
      }

      .cls-10 {
        fill: #233862;
      }

      .cls-11 {
        fill: #fff;
      }

      .cls-12 {
        fill: #2b478b;
      }

      .cls-13 {
        fill: #e8945b;
      }
    </style>
    <clipPath id="clip-path">
      <rect id="Rectangle_201" data-name="Rectangle 201" class="cls-1" width="79.751" height="180.299"/>
    </clipPath>
  </defs>
  <g id="Groupe_206" data-name="Groupe 206" class="cls-2">
    <path id="Tracé_608" data-name="Tracé 608" class="cls-3" d="M135.153,1.014a7.863,7.863,0,0,0-6.215-.665C118.38-.891,115.3,11.422,115.443,15.659s.626,8.787-4.088,14.29c-13.619,15.9,14.9,16.6,14.9,16.6.241-12.7,15.468-8.067,14.8-6.78C160.578,44.452,143,5.085,135.153,1.014" transform="translate(-83.259 0)"/>
    <path id="Tracé_609" data-name="Tracé 609" class="cls-4" d="M11.168,215.373s-1.856-2.826-3.353-2.882-4.267-.831-4.046-.277,1.94.61,2.106.942-2.549.831-3.325.887-2.6,0-2.549.388,3.3,1.995,5.583,1.773a15.512,15.512,0,0,1,5.113.665Z" transform="translate(0 -163.946)"/>
    <path id="Tracé_610" data-name="Tracé 610" d="M72.265,153.88a27.819,27.819,0,0,1-2.84,4.294c-2.206,2.764-5.608,5.956-9.88,6.586a10.6,10.6,0,0,1-5.869-.952l-.007,0c-5.187-2.3-9.088-7.6-9.088-7.6a4.264,4.264,0,0,1,.582-4.185s10.475,2.356,11.472,1.857,7.131-14.105,8.236-16.371a12.422,12.422,0,0,1,6.075-6.2Z" transform="translate(-34.246 -101.539)"/>
    <path id="Tracé_611" data-name="Tracé 611" class="cls-5" d="M101.453,230.866c-2.206,2.763-5.608,5.956-9.879,6.586a10.606,10.606,0,0,1-5.869-.952c.2.027,5.384.667,7.449-3.028,2.107-3.769,4.384-9.754,7.513-7.759,1.35.861,1.29,3,.787,5.154" transform="translate(-66.273 -174.231)"/>
    <path id="Tracé_612" data-name="Tracé 612" class="cls-6" d="M300.557,724.837s3.2,2.917,2.572,4.989-3.508,3.454-3.9,5.987-1.949,3.915-3.352,3.915h-6.69s-1.033-1.782,1.461-2.32,3.435-3.514,3.279-6.277a48.676,48.676,0,0,1,.234-6.448l5.3-1.228Z" transform="translate(-223.46 -559.429)"/>
    <path id="Tracé_613" data-name="Tracé 613" class="cls-6" d="M158.622,735.011s1.149,12.357-.253,13.047l-17.958-.037s0-2.073,2.884-2.533,7.951-2.149,8.809-5.911,6.518-4.567,6.518-4.567" transform="translate(-108.576 -568.365)"/>
    <path id="Tracé_614" data-name="Tracé 614" d="M171,140.488a71.543,71.543,0,0,1,0,8.3c-.178,3-3.214,7.021-3.644,8.015-1.081,2.494-2.3,2.9-2.3,2.9l-9.429,2.311-3.315.811L141.862,159.7s-4.762-13.291-2.85-20.773a57.5,57.5,0,0,1,4.833-12.677s7.087-2.8,19.639-.708Z" transform="translate(-107.145 -96.481)"/>
    <path id="Tracé_615" data-name="Tracé 615" class="cls-7" d="M212.506,225.753a29.354,29.354,0,0,1-.885,6.79c-1.081,2.494-2.3,2.9-2.3,2.9l-9.429,2.311-4.095-1.2s13.67-2.072,12.155-13.833Z" transform="translate(-151.406 -172.221)"/>
    <path id="Tracé_616" data-name="Tracé 616" class="cls-8" d="M137.24,287.744s-5.178,16.115-5.51,21.6,9.9,77.942,10.308,80.47c.388,2.383,3.347,3.9,3.347,3.9a4.478,4.478,0,0,0,3.3.254,8.167,8.167,0,0,0,3.547-1.672s4.03-51.675,1.536-70.134a292.4,292.4,0,0,1-2.523-34.422Z" transform="translate(-101.857 -222.505)"/>
    <path id="Tracé_617" data-name="Tracé 617" class="cls-9" d="M183.807,285.625s7.9,10.6,8.634,17.759,1.155,32.324,2.724,39.307,7.332,20.421,7.332,42.2a4.346,4.346,0,0,1-2.449,1.913,20.123,20.123,0,0,1-2.153.6,3.385,3.385,0,0,1-3.787-1.8c-3.9-7.845-16.307-33.146-16.943-38.4-.45-3.717-4.369-28.315-12.917-42.749-2.052-3.466,1.259-17.246,1.259-17.246Z" transform="translate(-126.489 -220.866)"/>
    <path id="Tracé_618" data-name="Tracé 618" class="cls-10" d="M151.409,276.771a10.852,10.852,0,0,0,6.208,1.727c4.932.1,17.152-1.257,17.152-1.257a10.111,10.111,0,0,1,.521,3.119s-14.926,3.765-23.574.55a5.465,5.465,0,0,1-.307-4.139" transform="translate(-116.854 -214.02)"/>
    <path id="Tracé_619" data-name="Tracé 619" class="cls-11" d="M166.9,285.761a2.567,2.567,0,1,1,2.25-2.547,2.415,2.415,0,0,1-2.25,2.547m0-4.348a1.831,1.831,0,1,0,1.5,1.8,1.675,1.675,0,0,0-1.5-1.8" transform="translate(-127.316 -217.033)"/>
    <path id="Tracé_620" data-name="Tracé 620" class="cls-12" d="M213.354,222.566l-12.12,10.554a2.1,2.1,0,0,1-2.966-.2L182.8,215.154a2.1,2.1,0,0,1,.2-2.966l12.12-10.554a2.1,2.1,0,0,1,2.966.2l15.465,17.76a2.1,2.1,0,0,1-.2,2.966" transform="translate(-140.957 -155.519)"/>
    <path id="Tracé_621" data-name="Tracé 621" class="cls-4" d="M218.27,289.843c-.172.046-6.438.782-6.439,2.077a3.9,3.9,0,0,0,3.568,3.408c.7-.038,3.934-3.011,3.934-3.011Z" transform="translate(-163.803 -224.128)"/>
    <path id="Tracé_622" data-name="Tracé 622" class="cls-4" d="M193.132,99.168a20.854,20.854,0,0,1-1.117-7.622l-.473.093-7.959,1.576s.181,2.5.186,4.864c0,.02,0,.039,0,.059.01,2.049-1.385,4.106,1.9,4.919,1.016.251,8.958-.258,7.46-3.889" transform="translate(-141.882 -70.79)"/>
    <path id="Tracé_623" data-name="Tracé 623" class="cls-13" d="M183.919,93.533s.181,2.5.186,4.864c4.454-.126,6.808-4.189,7.773-6.441Z" transform="translate(-142.22 -71.108)"/>
    <path id="Tracé_624" data-name="Tracé 624" class="cls-4" d="M165.388,48.117s10.538.174,10.545-6.39,1.372-10.962-5.355-11.351-8.038,2.115-8.573,4.305.643,13.222,3.384,13.436" transform="translate(-125.176 -23.458)"/>
    <path id="Tracé_625" data-name="Tracé 625" class="cls-3" d="M179.078,25.254s2.885,7.7,7.313,8.84,6.349-.048,6.349-.048a12.538,12.538,0,0,1-4.1-7.408s-7.384-5.049-9.561-1.384" transform="translate(-138.476 -18.496)"/>
    <path id="Tracé_626" data-name="Tracé 626" class="cls-3" d="M164.035,28.279a6.537,6.537,0,0,0-3.02,2.36,10.611,10.611,0,0,0-1.425,6.026s-2.174-5.234.269-8.2c2.59-3.14,4.175-.191,4.175-.191" transform="translate(-122.718 -20.896)"/>
    <path id="Tracé_627" data-name="Tracé 627" class="cls-4" d="M225.731,288.59a7.168,7.168,0,0,0-2.505-.342c-1,.141-1.746-.02-1.746.261s1.3.412,1.571.547a13.665,13.665,0,0,0,2.68-.467" transform="translate(-171.265 -222.875)"/>
    <path id="Tracé_628" data-name="Tracé 628" d="M236.916,128.186s7.48.524,10.348,7.5,8.308,18.674,8.308,20.642-3.039,8.038-19.36,11.528c0,0-1.688-1.776-1.586-3.18,0,0,10.188-8.751,10.161-9.774-.052-1.935-1.67-4.489-10.615-13.436-2.432-2.433,2.745-13.275,2.745-13.275" transform="translate(-180.576 -99.123)"/>
  </g>
</svg>
