<svg id="Groupe_166" data-name="Groupe 166" xmlns="http://www.w3.org/2000/svg" xmlns:xlink="http://www.w3.org/1999/xlink" width="180.228" height="155.696" viewBox="0 0 180.228 155.696">
  <defs>
    <style>
      .cls-1 {
        fill: none;
      }

      .cls-2 {
        clip-path: url(#clip-path);
      }

      .cls-3 {
        fill: #eb9481;
      }

      .cls-4 {
        fill: #275e47;
      }

      .cls-5 {
        fill: #1d2238;
      }

      .cls-6 {
        opacity: 0.5;
      }

      .cls-7 {
        clip-path: url(#clip-path-3);
      }

      .cls-8 {
        fill: #e4e6ed;
      }

      .cls-9 {
        clip-path: url(#clip-path-4);
      }

      .cls-10 {
        opacity: 0.53;
      }

      .cls-11 {
        clip-path: url(#clip-path-5);
      }

      .cls-12 {
        fill: #fff;
      }

      .cls-13 {
        clip-path: url(#clip-path-6);
      }

      .cls-14 {
        fill: #4a4e60;
      }
    </style>
    <clipPath id="clip-path">
      <rect id="Rectangle_112" data-name="Rectangle 112" class="cls-1" width="180.228" height="155.696"/>
    </clipPath>
    <clipPath id="clip-path-3">
      <rect id="Rectangle_104" data-name="Rectangle 104" class="cls-1" width="64.869" height="37.559"/>
    </clipPath>
    <clipPath id="clip-path-4">
      <path id="Tracé_362" data-name="Tracé 362" class="cls-1" d="M7.133,267.932c1.13,10.725,13.7,20.424,30.088,22.517S68.213,286.312,72,276.215c-1.13-10.725-13.7-20.424-30.088-22.517a49.756,49.756,0,0,0-6.3-.4c-13.717,0-25.19,5.856-28.486,14.638" transform="translate(-7.133 -253.294)"/>
    </clipPath>
    <clipPath id="clip-path-5">
      <rect id="Rectangle_107" data-name="Rectangle 107" class="cls-1" width="36.173" height="57.241"/>
    </clipPath>
    <clipPath id="clip-path-6">
      <rect id="Rectangle_109" data-name="Rectangle 109" class="cls-1" width="36.173" height="57.242"/>
    </clipPath>
  </defs>
  <g id="Groupe_137" data-name="Groupe 137" class="cls-2">
    <g id="Groupe_124" data-name="Groupe 124" transform="translate(0 -0.001)">
      <g id="Groupe_123" data-name="Groupe 123" class="cls-2">
        <path id="Tracé_343" data-name="Tracé 343" class="cls-3" d="M591.662,325.971l-3.843,5.718-25.14,6.521,5.557,5.573,21.622-2.2a10.289,10.289,0,0,0,6.434-3.166l5.853-6.189Z" transform="translate(-487.613 -282.483)"/>
        <path id="Tracé_344" data-name="Tracé 344" class="cls-4" d="M1175.681,1016.148l-8.6,10.532a5.016,5.016,0,0,0-.533,5.55l24.083-12.44-5.9-8.317Z" transform="translate(-1010.398 -876.534)"/>
        <path id="Tracé_345" data-name="Tracé 345" class="cls-5" d="M1190.117,1061.836c-1.927,1.135-3.881,2.218-5.845,3.282-.979.537-1.968,1.055-2.953,1.582l-2.969,1.552-2.983,1.523c-1,.5-1.994,1.005-3,1.493-2,.986-4.018,1.953-6.059,2.866,1.927-1.136,3.881-2.219,5.844-3.282.979-.537,1.969-1.054,2.953-1.582l2.969-1.551,2.983-1.522c1-.5,1.994-1,3-1.493,2-.986,4.018-1.953,6.059-2.867" transform="translate(-1010.715 -920.178)"/>
        <path id="Tracé_346" data-name="Tracé 346" class="cls-5" d="M1279.078,1037.632a2.462,2.462,0,1,1-3.317-1.057,2.461,2.461,0,0,1,3.317,1.057" transform="translate(-1104.409 -898.048)"/>
        <path id="Tracé_347" data-name="Tracé 347" class="cls-5" d="M1182.271,1109.288a1.659,1.659,0,0,1,.779-.5,2.177,2.177,0,0,1,.877-.085,2.068,2.068,0,0,1,.854.288,1.437,1.437,0,0,1,.61.719l-.032.05a3.284,3.284,0,0,0-.354-.174c-.061-.025-.119-.055-.181-.076l-.187-.063a4,4,0,0,0-.773-.149,5.345,5.345,0,0,0-.79-.031c-.132,0-.264.014-.4.028s-.264.026-.393.048Z" transform="translate(-1024.546 -960.783)"/>
        <path id="Tracé_348" data-name="Tracé 348" class="cls-5" d="M1198.833,1089.336a1.654,1.654,0,0,1,.779-.5,2.17,2.17,0,0,1,.877-.085,2.07,2.07,0,0,1,.855.288,1.438,1.438,0,0,1,.61.719l-.033.05a3.232,3.232,0,0,0-.354-.174c-.061-.025-.119-.055-.182-.076l-.187-.062a4.014,4.014,0,0,0-.773-.149,5.307,5.307,0,0,0-.79-.031c-.132,0-.264.014-.4.028s-.264.026-.393.048Z" transform="translate(-1038.899 -943.493)"/>
        <path id="Tracé_349" data-name="Tracé 349" class="cls-5" d="M1214.244,1071.033a1.659,1.659,0,0,1,.779-.5,2.177,2.177,0,0,1,.877-.085,2.07,2.07,0,0,1,.855.288,1.437,1.437,0,0,1,.61.719l-.032.05a3.285,3.285,0,0,0-.354-.174c-.061-.024-.119-.055-.181-.076l-.187-.063a4.027,4.027,0,0,0-.773-.149,5.365,5.365,0,0,0-.79-.031c-.132,0-.264.014-.4.028s-.264.026-.393.048Z" transform="translate(-1052.254 -927.632)"/>
        <path id="Tracé_350" data-name="Tracé 350" class="cls-5" d="M996.225,444.823l8.761,33.5,20.195,40.276,14.708-6.855-16.615-39.207-5.791-38.09Z" transform="translate(-863.32 -376.488)"/>
        <path id="Tracé_351" data-name="Tracé 351" class="cls-5" d="M896.6,494.905l-6.7,35.262.364,43.741,16.224.29,2.264-42.522,11.5-36.771Z" transform="translate(-771.184 -428.88)"/>
        <path id="Tracé_352" data-name="Tracé 352" class="cls-4" d="M818.246,1087.709l-12.467,5.436a5.016,5.016,0,0,0-3.01,4.692l27.106-.059-1.443-10.091Z" transform="translate(-695.671 -942.58)"/>
        <path id="Tracé_353" data-name="Tracé 353" class="cls-5" d="M831.868,1148.088c-2.233.129-4.465.2-6.7.248-1.116.03-2.233.039-3.349.057l-3.349.024-3.349-.008c-1.116-.014-2.233-.017-3.349-.043-2.233-.039-4.466-.1-6.7-.22,2.233-.13,4.465-.2,6.7-.249,1.116-.03,2.233-.038,3.349-.057l3.349-.023,3.349.009c1.116.014,2.233.018,3.349.043,2.233.039,4.466.1,6.7.219" transform="translate(-697.67 -994.688)"/>
        <path id="Tracé_354" data-name="Tracé 354" class="cls-5" d="M949.489,1103.845a2.462,2.462,0,1,1-2.467-2.456,2.462,2.462,0,0,1,2.467,2.456" transform="translate(-818.552 -954.454)"/>
        <path id="Tracé_355" data-name="Tracé 355" class="cls-5" d="M837.847,1120.49a1.657,1.657,0,0,1,.92-.087,2.17,2.17,0,0,1,.819.325,2.073,2.073,0,0,1,.629.647,1.439,1.439,0,0,1,.214.919l-.052.03a3.225,3.225,0,0,0-.235-.317c-.043-.05-.081-.1-.127-.151l-.138-.141a4.008,4.008,0,0,0-.62-.485,5.359,5.359,0,0,0-.688-.389q-.179-.084-.364-.156c-.122-.051-.247-.1-.372-.137Z" transform="translate(-726.058 -970.908)"/>
        <path id="Tracé_356" data-name="Tracé 356" class="cls-5" d="M861.7,1110.313a1.655,1.655,0,0,1,.921-.087,2.169,2.169,0,0,1,.819.325,2.07,2.07,0,0,1,.629.647,1.438,1.438,0,0,1,.214.918l-.052.03a3.246,3.246,0,0,0-.235-.317c-.043-.05-.081-.1-.127-.151l-.138-.141a4.032,4.032,0,0,0-.62-.485,5.345,5.345,0,0,0-.688-.389q-.179-.084-.365-.156c-.122-.051-.247-.1-.372-.137Z" transform="translate(-746.726 -962.088)"/>
        <path id="Tracé_357" data-name="Tracé 357" class="cls-5" d="M883.768,1101.075a1.658,1.658,0,0,1,.921-.087,2.169,2.169,0,0,1,.819.325,2.072,2.072,0,0,1,.629.647,1.438,1.438,0,0,1,.214.919l-.052.03a3.267,3.267,0,0,0-.235-.317c-.043-.05-.081-.1-.127-.151l-.138-.141a4.026,4.026,0,0,0-.62-.485,5.375,5.375,0,0,0-.688-.389q-.179-.084-.364-.156c-.122-.051-.247-.1-.372-.137Z" transform="translate(-765.853 -954.083)"/>
        <path id="Tracé_358" data-name="Tracé 358" class="cls-4" d="M764.716,175.036q3.09-4.566,6.267-9.073c3.3-4.679,6.849-10.315,12.793-11.751,2.039-.492,4.059-1.02,6.086-1.553,21.59,13.237,28.77,41.062,28.77,41.062-14.184,13.176-32.5,13.968-32.5,13.968a120.6,120.6,0,0,1-5.642-29.225l-3.116,4.082a21.962,21.962,0,0,1-12.661-7.51" transform="translate(-662.697 -132.292)"/>
        <path id="Tracé_359" data-name="Tracé 359" class="cls-5" d="M31.04,385.533C14.649,383.44,2.082,373.741.952,363.016a14.856,14.856,0,0,0-.832,3.346c-1.536,12.024,11.92,23.649,30.053,25.965s34.078-5.555,35.613-17.579a14.865,14.865,0,0,0,.035-3.448c-3.789,10.1-18.39,16.327-34.781,14.234" transform="translate(0 -314.586)"/>
        <path id="Tracé_360" data-name="Tracé 360" class="cls-5" d="M42.239,202.778c-18.133-2.315-34.078,5.555-35.613,17.579a14.857,14.857,0,0,0-.035,3.447c3.789-10.1,18.39-16.327,34.781-14.234S70.33,221.363,71.46,232.088a14.864,14.864,0,0,0,.832-3.346c1.535-12.024-11.92-23.649-30.053-25.964" transform="translate(-5.639 -175.375)"/>
        <g id="Groupe_122" data-name="Groupe 122" class="cls-6" transform="translate(0.952 33.792)">
          <g id="Groupe_121" data-name="Groupe 121">
            <g id="Groupe_120" data-name="Groupe 120" class="cls-7">
              <path id="Tracé_361" data-name="Tracé 361" class="cls-8" d="M41.914,253.7c-16.391-2.093-30.992,4.137-34.781,14.234,1.13,10.725,13.7,20.424,30.088,22.517S68.213,286.312,72,276.215c-1.13-10.725-13.7-20.424-30.088-22.517" transform="translate(-7.133 -253.294)"/>
            </g>
          </g>
        </g>
      </g>
    </g>
    <g id="Groupe_133" data-name="Groupe 133" transform="translate(0.952 33.792)">
      <g id="Groupe_132" data-name="Groupe 132" class="cls-9">
        <g id="Groupe_127" data-name="Groupe 127" class="cls-10" transform="translate(6.057 -7.549)">
          <g id="Groupe_126" data-name="Groupe 126">
            <g id="Groupe_125" data-name="Groupe 125" class="cls-11">
              <rect id="Rectangle_106" data-name="Rectangle 106" class="cls-12" width="14.397" height="56.279" transform="matrix(0.912, -0.409, 0.409, 0.912, 0, 5.893)"/>
            </g>
          </g>
        </g>
        <g id="Groupe_130" data-name="Groupe 130" class="cls-10" transform="translate(26.835 -13.216)">
          <g id="Groupe_129" data-name="Groupe 129">
            <g id="Groupe_128" data-name="Groupe 128" class="cls-13">
              <rect id="Rectangle_108" data-name="Rectangle 108" class="cls-12" width="14.397" height="56.279" transform="matrix(0.912, -0.409, 0.409, 0.912, 0, 5.894)"/>
            </g>
          </g>
        </g>
      </g>
    </g>
    <g id="Groupe_136" data-name="Groupe 136" transform="translate(0 -0.001)">
      <g id="Groupe_135" data-name="Groupe 135" class="cls-2">
        <rect id="Rectangle_110" data-name="Rectangle 110" class="cls-5" width="5.046" height="9.409" transform="translate(65.021 60.323) rotate(-79.326)"/>
        <path id="Tracé_363" data-name="Tracé 363" class="cls-14" d="M531.094,416.929l1.132-6a1.618,1.618,0,0,1,1.89-1.291l62.033,11.693a1.618,1.618,0,0,1,1.29,1.89l-1.131,6a1.619,1.619,0,0,1-1.89,1.29l-62.033-11.693a1.618,1.618,0,0,1-1.291-1.89" transform="translate(-460.217 -354.961)"/>
        <path id="Tracé_364" data-name="Tracé 364" class="cls-3" d="M531.439,434.992a1.029,1.029,0,0,1-1.311.062,1.242,1.242,0,0,1-1.961,0,1.654,1.654,0,0,0-2.205.781l-1.94,4.066a1.654,1.654,0,1,0,2.986,1.425l.255-.534a14.025,14.025,0,0,1,4.656,2,1.652,1.652,0,0,0,1.55-1.753l-.277-4.5a1.654,1.654,0,0,0-1.753-1.55" transform="translate(-453.972 -376.872)"/>
        <path id="Tracé_365" data-name="Tracé 365" class="cls-5" d="M549.365,448.683a9.939,9.939,0,0,1,.137-1.2q.1-.6.238-1.181c.092-.391.2-.777.318-1.161a9.834,9.834,0,0,1,.419-1.137,9.828,9.828,0,0,1-.137,1.2c-.067.4-.145.79-.239,1.18s-.2.777-.319,1.161a9.945,9.945,0,0,1-.419,1.137" transform="translate(-476.075 -384.765)"/>
        <path id="Tracé_366" data-name="Tracé 366" class="cls-5" d="M570.991,447.382a12.726,12.726,0,0,1,0-1.372q.03-.683.1-1.361c.046-.452.108-.9.182-1.352a12.565,12.565,0,0,1,.286-1.341,12.513,12.513,0,0,1,0,1.372c-.02.455-.053.909-.1,1.361s-.108.9-.183,1.352a12.7,12.7,0,0,1-.286,1.341" transform="translate(-494.799 -382.995)"/>
        <path id="Tracé_367" data-name="Tracé 367" class="cls-5" d="M876.728,295.4a9.283,9.283,0,0,1-.6-1.908,15.2,15.2,0,0,1-.275-1.934,15.476,15.476,0,0,1-.032-1.953,9.387,9.387,0,0,1,.289-1.978l0-.011a.032.032,0,0,1,.063.006l.093.97.083.971.166,1.942.143,1.944.071.972.061.973a.032.032,0,0,1-.062.015Z" transform="translate(-758.966 -249.223)"/>
        <path id="Tracé_368" data-name="Tracé 368" class="cls-5" d="M751.123,368.835a3.842,3.842,0,0,1,1.394.336,5.406,5.406,0,0,1,1.238.739,5.465,5.465,0,0,1,1.006,1.032,4.9,4.9,0,0,1,.39.6,4.967,4.967,0,0,1,.29.655c-.183-.161-.332-.338-.5-.5s-.322-.33-.494-.481c-.325-.32-.673-.608-1.023-.891a13.293,13.293,0,0,0-1.1-.788c-.383-.248-.777-.481-1.2-.706" transform="translate(-650.917 -319.629)"/>
        <path id="Tracé_369" data-name="Tracé 369" class="cls-3" d="M918.984,286.937a3.791,3.791,0,0,0-.722,2.412,9.981,9.981,0,0,1-.381,2.055,10.77,10.77,0,0,1-1.823,3.58q-.226.292-.473.568c-.018.021-.11.1-.11.121a7.8,7.8,0,0,1-1.259,1.14,1.7,1.7,0,0,1-2.475-.276,1.606,1.606,0,0,1-.273-.808,8.67,8.67,0,0,1-1.2.729,1.618,1.618,0,0,1-2.226-.951l-.77.66a1.854,1.854,0,0,1-.754.4,1.8,1.8,0,0,1-1.908-.706l-.528-.748,2.851-4.509,1.66-3.973a1.726,1.726,0,0,1,1.115-1.109l1.506-.482,12.543-18.519-2.624-4.363,8.664-6.155a78.089,78.089,0,0,1,4.041,7.444,6.186,6.186,0,0,1-.857,6.329Z" transform="translate(-783.475 -221.851)"/>
        <path id="Tracé_370" data-name="Tracé 370" class="cls-5" d="M933.765,530.354a8.924,8.924,0,0,1,.744-.953c.263-.3.54-.591.825-.87s.58-.549.889-.8a8.814,8.814,0,0,1,.97-.722,8.785,8.785,0,0,1-.744.953c-.263.3-.539.591-.825.87s-.58.549-.889.8a8.878,8.878,0,0,1-.969.722" transform="translate(-809.193 -456.697)"/>
        <path id="Tracé_371" data-name="Tracé 371" class="cls-5" d="M959.415,541.453a3.263,3.263,0,0,1,.4-.593,5.388,5.388,0,0,1,.48-.507,5.313,5.313,0,0,1,.54-.442.367.367,0,1,1,.222.239,5.283,5.283,0,0,1-.48.506,5.405,5.405,0,0,1-.541.441,3.266,3.266,0,0,1-.621.355" transform="translate(-831.421 -467.575)"/>
        <path id="Tracé_372" data-name="Tracé 372" class="cls-5" d="M1051.565,330.327a5.1,5.1,0,0,1,1.061-.4,8.459,8.459,0,0,1,1.086-.217,8.307,8.307,0,0,1,1.1-.075,5.064,5.064,0,0,1,1.13.115,5.05,5.05,0,0,1-1.061.405,8.262,8.262,0,0,1-1.086.216,8.429,8.429,0,0,1-1.1.074,5.109,5.109,0,0,1-1.13-.114" transform="translate(-911.277 -285.655)"/>
        <path id="Tracé_373" data-name="Tracé 373" class="cls-4" d="M953.205,152.5s7.284-.583,12.2,3.857a81.784,81.784,0,0,1,10.241,11.318l-12.676,7.472Z" transform="translate(-826.04 -132.129)"/>
        <path id="Tracé_374" data-name="Tracé 374" class="cls-5" d="M1016.033,277.04c-.516-.628-.988-1.283-1.443-1.948s-.894-1.341-1.317-2.026-.831-1.38-1.217-2.088-.762-1.422-1.089-2.166c.517.627.988,1.283,1.444,1.948s.894,1.341,1.317,2.027.83,1.38,1.216,2.088.762,1.422,1.09,2.166" transform="translate(-876.095 -232.95)"/>
        <path id="Tracé_375" data-name="Tracé 375" class="cls-5" d="M1038.277,285.389l7.76-4.265-7.49,4.724Z" transform="translate(-899.762 -243.62)"/>
        <path id="Tracé_376" data-name="Tracé 376" class="cls-5" d="M933.687,17.049S938.257,21.64,937.6,26s-3.249,6.039-3.249,6.039l-2.672-9.356Z" transform="translate(-807.384 -14.774)"/>
        <path id="Tracé_377" data-name="Tracé 377" class="cls-5" d="M827.272,17.049a7.953,7.953,0,0,0-7.464,5.085,5.8,5.8,0,0,0-.291,1.022,2.535,2.535,0,0,0,1.247,2.638l7.207-8.745Z" transform="translate(-710.154 -14.774)"/>
        <path id="Tracé_378" data-name="Tracé 378" class="cls-3" d="M837.35,20.854h0a8.236,8.236,0,0,1,8.211,7.61l.067-.011,1.781,11.113a4.486,4.486,0,0,1-3.72,5.14h0a4.486,4.486,0,0,1-5.14-3.72l-.126-.788a8.225,8.225,0,0,1-9.311-8.166V29.091a8.237,8.237,0,0,1,8.237-8.237" transform="translate(-718.502 -18.071)"/>
        <path id="Tracé_379" data-name="Tracé 379" class="cls-5" d="M898.762,146.765a2.589,2.589,0,0,0,.341,1.645c3.988-.413,4.7-4.587,4.7-4.587a7.676,7.676,0,0,1-5.04,2.942" transform="translate(-778.84 -124.635)"/>
        <path id="Tracé_380" data-name="Tracé 380" class="cls-5" d="M845.023,71.973a5.924,5.924,0,0,1,.156.647c.023.108.037.216.055.324s.035.216.045.324c.025.216.05.432.061.647l.022.324.007.324.008.361-.373,0c-.137,0-.275.009-.412.006l-.168,0a.426.426,0,0,0-.1.02.477.477,0,0,0-.168.116.4.4,0,0,0-.089.2.415.415,0,0,0,.027.24.733.733,0,0,0,.067.117.544.544,0,0,0,.1.1.771.771,0,0,0,.136.073,1.617,1.617,0,0,0,.189.044c.138.031.275.066.412.108l.006,0a.02.02,0,0,1-.006.04l-.412.006c-.069,0-.136,0-.209,0a.774.774,0,0,1-.208-.051.739.739,0,0,1,0-1.362.817.817,0,0,1,.21-.055c.074-.006.141,0,.21-.005H845l-.04.04c.006-.863,0-1.726.019-2.589a.021.021,0,0,1,.021-.02.02.02,0,0,1,.019.014Z" transform="translate(-731.159 -62.353)"/>
        <path id="Tracé_381" data-name="Tracé 381" class="cls-5" d="M836.127,68.851a.572.572,0,1,0,.572-.572.572.572,0,0,0-.572.572" transform="translate(-724.581 -59.169)"/>
        <path id="Tracé_382" data-name="Tracé 382" class="cls-12" d="M843.984,107.18s.948-1.381,3.711-1.345Z" transform="translate(-731.389 -91.714)"/>
        <path id="Tracé_383" data-name="Tracé 383" class="cls-5" d="M835.339,46.532c.052.213-.391.5-.99.648s-1.125.089-1.176-.124.391-.5.989-.648,1.125-.089,1.176.124" transform="translate(-722.017 -40.146)"/>
        <path id="Tracé_384" data-name="Tracé 384" class="cls-5" d="M862.2,45.061c.008.219-.484.414-1.1.436s-1.12-.138-1.127-.357.484-.414,1.1-.436,1.12.138,1.127.357" transform="translate(-745.247 -38.738)"/>
        <path id="Tracé_385" data-name="Tracé 385" class="cls-5" d="M862.415,69.177a5.309,5.309,0,0,1-.827.285c-.279.073-.56.13-.843.175l.054-.392a8.594,8.594,0,0,1,.834.418c.136.076.268.162.4.247a4.138,4.138,0,0,1,.382.287,4.174,4.174,0,0,1-.468-.1c-.151-.042-.3-.084-.45-.135a8.681,8.681,0,0,1-.867-.346l-.641-.294.695-.1c.284-.04.569-.068.857-.08a5.315,5.315,0,0,1,.874.029" transform="translate(-745.259 -59.918)"/>
        <path id="Tracé_386" data-name="Tracé 386" class="cls-3" d="M948.413,73.9a1.677,1.677,0,1,1-1.64-2.029,1.866,1.866,0,0,1,1.64,2.029" transform="translate(-819.044 -62.278)"/>
        <path id="Tracé_387" data-name="Tracé 387" class="cls-5" d="M950.107,77.386a.906.906,0,0,1,.266-.559,1.025,1.025,0,0,1,.289-.194.928.928,0,0,1,.36-.075,1.077,1.077,0,0,1,.7.245,1.387,1.387,0,0,1,.251.265,1.583,1.583,0,0,1,.166.314,1.7,1.7,0,0,1,.088.336c0,.057.012.114.013.171v.085c0,.015,0,.027,0,.044l-.005.056a.891.891,0,0,1-.022.123.638.638,0,0,1-.063.15.5.5,0,0,1-.309.233.682.682,0,0,1-.442-.053,2.757,2.757,0,0,1-.5-.294,3.087,3.087,0,0,0-.457-.293l-.009,0a.019.019,0,0,1,.009-.037,4.585,4.585,0,0,1,1.046.312.493.493,0,0,0,.249.019.174.174,0,0,0,.109-.182,1.3,1.3,0,0,0-.091-.517.94.94,0,0,0-.758-.643.9.9,0,0,0-.851.517.02.02,0,0,1-.038-.011Z" transform="translate(-823.354 -66.343)"/>
        <path id="Tracé_388" data-name="Tracé 388" class="cls-5" d="M839.657,107.431a6.633,6.633,0,0,1,1.049-.638c.178-.1.365-.173.547-.259s.372-.153.559-.229.378-.137.57-.2.384-.123.581-.17a6.687,6.687,0,0,1,1.207-.222h0a.017.017,0,0,1,.007.032l-2.25.874-2.262.843a.017.017,0,0,1-.016-.029Z" transform="translate(-727.631 -91.61)"/>
        <path id="Tracé_389" data-name="Tracé 389" class="cls-5" d="M861.689,3.666s1.262,4.641,5.487,5.44,6.446,1.283,6.446,1.283a8.765,8.765,0,0,0-.288-7.353c-1.933-4.186-13.474-4.115-11.645.63" transform="translate(-746.563 0.004)"/>
        <path id="Tracé_390" data-name="Tracé 390" class="cls-5" d="M822.663,14.761a8.526,8.526,0,0,0-6.2,4.123,7.848,7.848,0,0,1,6.488-4.763Z" transform="translate(-707.536 -12.237)"/>
        <path id="Tracé_391" data-name="Tracé 391" class="cls-5" d="M856.633,57.48a2.4,2.4,0,0,1-2.295,2.394,2.385,2.385,0,0,1-1.744-.65,2.437,2.437,0,0,1-.554-.792,2.4,2.4,0,0,1,0-1.9,2.421,2.421,0,0,1,.553-.793,2.4,2.4,0,0,1,4.039,1.745m0,0a2.306,2.306,0,0,0-.182-.875,2.229,2.229,0,0,0-.51-.728,2.2,2.2,0,1,0,0,3.206,2.224,2.224,0,0,0,.51-.728,2.306,2.306,0,0,0,.182-.875" transform="translate(-738.201 -47.733)"/>
        <path id="Tracé_392" data-name="Tracé 392" class="cls-5" d="M819.748,57.644a2.384,2.384,0,0,1-.652,1.642,2.391,2.391,0,0,1-3.386.1,2.437,2.437,0,0,1-.554-.792,2.4,2.4,0,0,1,0-1.9,2.421,2.421,0,0,1,.553-.793,2.4,2.4,0,0,1,4.039,1.745m0,0a2.3,2.3,0,0,0-.182-.875,2.229,2.229,0,0,0-.51-.728,2.2,2.2,0,1,0,0,3.206,2.227,2.227,0,0,0,.51-.728,2.3,2.3,0,0,0,.182-.875" transform="translate(-706.237 -47.875)"/>
        <path id="Tracé_393" data-name="Tracé 393" class="cls-5" d="M895.024,72.562h-.016l-8.627-.646a.207.207,0,1,1,.031-.414l8.627.646a.207.207,0,0,1-.015.414" transform="translate(-767.964 -61.962)"/>
        <path id="Tracé_394" data-name="Tracé 394" class="cls-12" d="M888.247,165.875s.292,4.332,5.281,4.494c0,0-2.738,2.824-3.819,2.828-2.357.009-3.643-4.042-2.887-6.589Z" transform="translate(-768.326 -143.745)"/>
        <path id="Tracé_395" data-name="Tracé 395" class="cls-12" d="M942.011,152.47s.885,5.651-3.52,6.283c0,0,2.914,2.417,4.877,1.524s.718-7.613.718-7.613Z" transform="translate(-813.289 -132.129)"/>
        <path id="Tracé_396" data-name="Tracé 396" class="cls-5" d="M920.1,200.278c.543-.494,1.058-1.043,1.074-1.366a18.912,18.912,0,0,0-1.225-3.622s-1.807-.322-2.641.389c0,0-.867,2.2-.418,3.3a5.816,5.816,0,0,0,1.185,1.64l-2.634,17.019a7.8,7.8,0,0,0,1.231,5.539l1.764,2.628,2.38-2.1a7.8,7.8,0,0,0,2.491-7.379Z" transform="translate(-793.236 -169.174)"/>
      </g>
    </g>
  </g>
</svg>
