<svg xmlns="http://www.w3.org/2000/svg" width="24.959" height="17.828" viewBox="0 0 24.959 17.828">
  <defs>
    <style>
      .cls-1 {
        fill: #f3af62;
      }
    </style>
  </defs>
  <path id="letter-147563" class="cls-1" d="M6.674,8A2.673,2.673,0,0,0,4,10.674c.033,4.055,0,8.347,0,12.48a2.663,2.663,0,0,0,2.507,2.66l19.889.014a2.674,2.674,0,0,0,2.563-2.674V10.215A2.668,2.668,0,0,0,26.327,8Q16.506,8,6.674,8ZM6.632,9.407H26.41l-9.569,9.569a.44.44,0,0,1-.627,0L6.632,9.407Zm20.99.682V23.056c0,.773-.278,1.209-.836,1.365l-6.741-6.755,7.577-7.577Zm-22.132.056L12.942,17.6,6.131,24.407a.981.981,0,0,1-.641-1.045V10.145Zm8.4,8.385,2.326,2.34a.44.44,0,0,0,.627,0L19.1,18.613l5.878,5.878H7.928L13.89,18.53Z" transform="translate(-4 -8)"/>
</svg>
