<svg id="Groupe_66" data-name="Groupe 66" xmlns="http://www.w3.org/2000/svg" xmlns:xlink="http://www.w3.org/1999/xlink" width="18.904" height="18.904" viewBox="0 0 18.904 18.904">
  <defs>
    <style>
      .cls-1, .cls-3 {
        fill: #ffe9cc;
      }

      .cls-2 {
        clip-path: url(#clip-path);
      }

      .cls-3 {
        fill-rule: evenodd;
      }
    </style>
    <clipPath id="clip-path">
      <rect id="Rectangle_65" data-name="Rectangle 65" class="cls-1" width="18.904" height="18.904"/>
    </clipPath>
  </defs>
  <g id="Groupe_61" data-name="Groupe 61" class="cls-2">
    <path id="Tracé_270" data-name="Tracé 270" class="cls-1" d="M90.869,458.555a7.375,7.375,0,0,1-5.839-5.839.534.534,0,0,1,.356-.58.548.548,0,0,1,.563.58,6.518,6.518,0,0,0,1.743,3.177,6.445,6.445,0,0,0,3.177,1.743.521.521,0,0,1,.564.53.514.514,0,0,1-.564.388" transform="translate(-83.053 -441.624)"/>
    <path id="Tracé_271" data-name="Tracé 271" class="cls-1" d="M83.045,88.921a7.375,7.375,0,0,1,5.839-5.839.534.534,0,0,1,.58.356.548.548,0,0,1-.58.563,6.518,6.518,0,0,0-3.177,1.743,6.445,6.445,0,0,0-1.743,3.177.521.521,0,0,1-.53.564.514.514,0,0,1-.388-.564" transform="translate(-81.114 -81.15)"/>
    <path id="Tracé_272" data-name="Tracé 272" class="cls-1" d="M457.963,82.672a7.375,7.375,0,0,1,5.839,5.839.534.534,0,0,1-.356.58.548.548,0,0,1-.563-.58,6.518,6.518,0,0,0-1.743-3.177,6.445,6.445,0,0,0-3.177-1.743.521.521,0,0,1-.564-.53.514.514,0,0,1,.564-.388" transform="translate(-446.766 -80.749)"/>
    <path id="Tracé_273" data-name="Tracé 273" class="cls-1" d="M460.256,455.2a7.375,7.375,0,0,1-5.839,5.839.534.534,0,0,1-.58-.356.548.548,0,0,1,.58-.563,6.518,6.518,0,0,0,3.177-1.743,6.445,6.445,0,0,0,1.743-3.177.521.521,0,0,1,.53-.564.514.514,0,0,1,.388.564" transform="translate(-443.285 -444.065)"/>
    <path id="Tracé_274" data-name="Tracé 274" class="cls-3" d="M18.35,8.9H11.613a2.236,2.236,0,0,0-1.608-1.608V.554A.554.554,0,1,0,8.9.554V7.291A2.236,2.236,0,0,0,7.29,8.9H.554a.554.554,0,1,0,0,1.108H7.29A2.234,2.234,0,0,0,8.9,11.614V18.35a.554.554,0,0,0,1.108,0V11.614a2.234,2.234,0,0,0,1.608-1.608H18.35a.554.554,0,0,0,0-1.108"/>
  </g>
</svg>
