<?xml version="1.0" encoding="UTF-8"?>
<svg width="700pt" height="700pt" version="1.1" viewBox="0 0 700 700" xmlns="http://www.w3.org/2000/svg">
 <g>
  <path d="m350 315.31 229.9-194.56c-9.8398-10.07-23.324-15.75-37.402-15.75h-385c-14.082 0-27.566 5.6797-37.406 15.75z"/>
  <path d="m358.48 342.52c-4.8906 4.1445-12.062 4.1445-16.953 0l-234.55-198.49c-1.2461 4.3867-1.9102 8.918-1.9727 13.477v245c0.015625 13.918 5.5508 27.266 15.395 37.105 9.8398 9.8438 23.188 15.379 37.105 15.395h385c13.918-0.015625 27.266-5.5508 37.105-15.395 9.8438-9.8398 15.379-23.188 15.395-37.105v-245c-0.0625-4.5586-0.72656-9.0898-1.9727-13.477z"/>
 </g>
</svg>
