<svg id="Groupe_164" data-name="Groupe 164" xmlns="http://www.w3.org/2000/svg" xmlns:xlink="http://www.w3.org/1999/xlink" width="118" height="163.9" viewBox="0 0 118 163.9">
  <defs>
    <style>
      .cls-1 {
        fill: none;
      }

      .cls-2 {
        clip-path: url(#clip-path);
      }

      .cls-3 {
        fill: #f1f2f5;
      }
    </style>
    <clipPath id="clip-path">
      <rect id="Rectangle_103" data-name="Rectangle 103" class="cls-1" width="118" height="163.9"/>
    </clipPath>
  </defs>
  <g id="Groupe_117" data-name="Groupe 117" class="cls-2">
    <path id="Tracé_340" data-name="Tracé 340" class="cls-3" d="M171.765,54.729V38.347A2.766,2.766,0,0,0,169,35.582h-6.69a38.407,38.407,0,0,0-3.114-7.517l4.731-4.731a2.765,2.765,0,0,0,0-3.911L152.342,7.839a2.765,2.765,0,0,0-3.911,0L143.7,12.57a38.445,38.445,0,0,0-7.517-3.114V2.765A2.766,2.766,0,0,0,133.418,0H117.036a2.766,2.766,0,0,0-2.766,2.765v6.69a38.443,38.443,0,0,0-7.517,3.114l-4.731-4.731a2.765,2.765,0,0,0-3.911,0L86.528,19.422a2.765,2.765,0,0,0,0,3.911l4.731,4.731a38.443,38.443,0,0,0-3.114,7.517h-6.69a2.766,2.766,0,0,0-2.765,2.766V54.729a2.766,2.766,0,0,0,2.765,2.765h6.69a38.445,38.445,0,0,0,3.114,7.517l-4.731,4.731a2.765,2.765,0,0,0,0,3.911L98.111,85.237a2.765,2.765,0,0,0,3.911,0l4.731-4.731a38.407,38.407,0,0,0,7.517,3.114v6.69a2.766,2.766,0,0,0,2.766,2.766h16.381a2.766,2.766,0,0,0,2.765-2.766V83.62a38.409,38.409,0,0,0,7.517-3.114l4.731,4.731a2.765,2.765,0,0,0,3.911,0l11.583-11.583a2.765,2.765,0,0,0,0-3.911l-4.731-4.731a38.41,38.41,0,0,0,3.114-7.517H169a2.766,2.766,0,0,0,2.765-2.765m-46.105,5.018a13.215,13.215,0,1,1,12.776-12.776,13.216,13.216,0,0,1-12.776,12.776" transform="translate(-55.859)"/>
    <path id="Tracé_341" data-name="Tracé 341" class="cls-3" d="M250,381.821V370.548a1.9,1.9,0,0,0-1.9-1.9h-4.6a26.443,26.443,0,0,0-2.143-5.173l3.255-3.256a1.9,1.9,0,0,0,0-2.691l-7.971-7.971a1.9,1.9,0,0,0-2.691,0l-3.255,3.256a26.454,26.454,0,0,0-5.173-2.143v-4.6a1.9,1.9,0,0,0-1.9-1.9H212.341a1.9,1.9,0,0,0-1.9,1.9v4.6a26.451,26.451,0,0,0-5.173,2.143l-3.256-3.256a1.9,1.9,0,0,0-2.691,0l-7.971,7.971a1.9,1.9,0,0,0,0,2.691l3.255,3.256a26.44,26.44,0,0,0-2.143,5.173h-4.6a1.9,1.9,0,0,0-1.9,1.9v11.273a1.9,1.9,0,0,0,1.9,1.9h4.6A26.44,26.44,0,0,0,194.6,388.9l-3.255,3.255a1.9,1.9,0,0,0,0,2.691l7.971,7.971a1.9,1.9,0,0,0,2.691,0l3.256-3.256a26.45,26.45,0,0,0,5.173,2.143v4.6a1.9,1.9,0,0,0,1.9,1.9h11.273a1.9,1.9,0,0,0,1.9-1.9v-4.6a26.452,26.452,0,0,0,5.173-2.143l3.255,3.256a1.9,1.9,0,0,0,2.691,0l7.971-7.971a1.9,1.9,0,0,0,0-2.691l-3.255-3.256a26.432,26.432,0,0,0,2.143-5.173h4.6a1.9,1.9,0,0,0,1.9-1.9m-31.728,3.453a9.094,9.094,0,1,1,8.792-8.792,9.095,9.095,0,0,1-8.792,8.792" transform="translate(-132.003 -244.31)"/>
    <path id="Tracé_342" data-name="Tracé 342" class="cls-3" d="M44.738,324.666v-7.874a1.329,1.329,0,0,0-1.329-1.329H40.193a18.482,18.482,0,0,0-1.5-3.613l2.274-2.274a1.329,1.329,0,0,0,0-1.88L35.4,302.128a1.33,1.33,0,0,0-1.88,0L31.249,304.4a18.465,18.465,0,0,0-3.613-1.5v-3.216a1.33,1.33,0,0,0-1.329-1.329H18.432a1.33,1.33,0,0,0-1.329,1.329v3.216a18.465,18.465,0,0,0-3.613,1.5l-2.274-2.274a1.33,1.33,0,0,0-1.88,0L3.768,307.7a1.33,1.33,0,0,0,0,1.88l2.274,2.274a18.464,18.464,0,0,0-1.5,3.613H1.329A1.329,1.329,0,0,0,0,316.792v7.874A1.33,1.33,0,0,0,1.329,326H4.545a18.464,18.464,0,0,0,1.5,3.613l-2.274,2.274a1.329,1.329,0,0,0,0,1.88l5.568,5.568a1.329,1.329,0,0,0,1.88,0l2.274-2.274a18.466,18.466,0,0,0,3.613,1.5v3.216a1.33,1.33,0,0,0,1.329,1.329h7.874a1.33,1.33,0,0,0,1.329-1.329v-3.216a18.466,18.466,0,0,0,3.613-1.5l2.274,2.274a1.329,1.329,0,0,0,1.88,0l5.567-5.568a1.329,1.329,0,0,0,0-1.88L38.7,329.609a18.482,18.482,0,0,0,1.5-3.613h3.215a1.329,1.329,0,0,0,1.329-1.329m-22.161,2.412a6.352,6.352,0,1,1,6.141-6.141,6.352,6.352,0,0,1-6.141,6.141" transform="translate(0 -211.798)"/>
  </g>
</svg>
