<svg xmlns="http://www.w3.org/2000/svg" width="30" height="30" viewBox="0 0 30 30">
  <defs>
    <style>
      .cls-1 {
        fill: #275e47;
      }

      .cls-2 {
        fill: #fff;
      }
    </style>
  </defs>
  <g id="Groupe_299" data-name="Groupe 299" transform="translate(-179 -188)">
    <circle id="Ellipse_110" data-name="Ellipse 110" class="cls-1" cx="15" cy="15" r="15" transform="translate(179 188)"/>
    <path id="photo-camera-2027073" class="cls-2" d="M6,2c-.554,0-.752.5-1,1L4.5,4h-2A1.5,1.5,0,0,0,1,5.5v5A1.5,1.5,0,0,0,2.5,12h10A1.5,1.5,0,0,0,14,10.5v-5A1.5,1.5,0,0,0,12.5,4h-2L10,3c-.25-.5-.446-1-1-1ZM2.5,5a.5.5,0,1,1-.5.5A.5.5,0,0,1,2.5,5Zm5,0a3,3,0,1,1-3,3A3,3,0,0,1,7.5,5Zm0,1.5A1.5,1.5,0,1,0,9,8,1.5,1.5,0,0,0,7.5,6.5Z" transform="translate(187 196)"/>
  </g>
</svg>
