<?xml version="1.0" encoding="utf-8"?>
<!-- Generator: Adobe Illustrator 23.0.3, SVG Export Plug-In . SVG Version: 6.00 Build 0)  -->
<svg version="1.1" id="Calque_1" xmlns="http://www.w3.org/2000/svg" xmlns:xlink="http://www.w3.org/1999/xlink" x="0px" y="0px"
	 viewBox="0 0 700 700" style="enable-background:new 0 0 700 700;" xml:space="preserve">
<style type="text/css">
	.st0{fill:#FFFFFF;}
</style>
<path class="st0" d="M366.4,319.5c1.1,5.6,3.9,17.9,35.8,24.6c10.1,2.2,23,3.4,39.8,3.9c9.5,0.6,17.9-7.3,17.9-16.8
	c0.6-9.5-7.3-17.9-16.8-17.9c-16.8-0.6-35.8-3.4-43.7-6.2c-1.7-14.6-1.1-45.9,0-63.8c0.6-5.6-2.2-10.6-6.2-14
	c-2.2-2.8-5.6-6.2-9.5-9c-26.3-17.9-36.4-11.8-66.6,10.1c-25.8,19-51.5,51.5-63.8,80.6c-1.7,2.8-3.4,6.2-4.5,10.6
	c-3.9,11.2,0.6,22.4,10.6,29.7c10.6,7.3,29.7,17.9,44.2,25.2c15.7,7.8,33.6,16.8,49.8,28c-5.6,17.9-26.3,59.4-45.4,93
	c-6.2,10.6-2.2,23.5,7.8,29.7c2.8,1.7,5.6,2.8,9,2.8c8.4,0.6,16.8-3.4,20.7-10.6c0.6-1.1,15.7-27.4,29.7-54.9
	c24.1-48.2,31.9-73.4,13.4-87.9c-18.5-14.6-38.6-25.2-56-33.6c9.5-14.6,21.3-31.4,31.4-44.8C364.1,306.1,365.2,313.9,366.4,319.5
	L366.4,319.5z"/>
<path class="st0" d="M428.3,133c24.7,4.1,41.4,27.5,37.3,52.2c-4.1,24.7-27.5,41.4-52.2,37.3c-24.7-4.1-41.4-27.5-37.3-52.2
	C380.2,145.6,403.6,128.9,428.3,133"/>
<path class="st0" d="M186,364.9c-57.1,0-103,46.5-103,103c0,56.6,46.5,103,103,103c56.6,0,103.6-45.4,103.6-102.5
	C289.6,411.4,243.2,364.9,186,364.9L186,364.9z M186,540.2c-39.8,0-71.7-32.5-71.7-71.7s32.5-71.7,71.7-71.7
	c39.2,0,71.7,32.5,71.7,71.7S225.8,540.2,186,540.2L186,540.2z"/>
<path class="st0" d="M512,364.9c-57.1,0-103,46.5-103,103c0,56.6,46.5,103,103,103c56.6,0,103-45.4,103-102.5
	C615,411.4,568.5,364.9,512,364.9z M512,540.2c-39.8,0-71.7-32.5-71.7-71.7s31.9-71.7,71.7-71.7s71.7,32.5,71.7,71.7
	S551.2,540.2,512,540.2z"/>
</svg>
