<?xml version="1.0" encoding="UTF-8"?>
<svg width="700pt" height="700pt" version="1.1" viewBox="0 0 700 700" xmlns="http://www.w3.org/2000/svg" xmlns:xlink="http://www.w3.org/1999/xlink">
 <defs>
  <symbol id="w" overflow="visible">
   <path d="m3.2344-0.1875c-0.16797 0.085938-0.34375 0.14844-0.53125 0.1875-0.17969 0.039062-0.36719 0.0625-0.5625 0.0625-0.58594 0-1.0469-0.16016-1.3906-0.48438-0.34375-0.33203-0.51562-0.77344-0.51562-1.3281 0-0.5625 0.17188-1.0039 0.51562-1.3281 0.34375-0.33203 0.80469-0.5 1.3906-0.5 0.19531 0 0.38281 0.023437 0.5625 0.0625 0.1875 0.042969 0.36328 0.10547 0.53125 0.1875v0.73438c-0.16797-0.11328-0.33594-0.19531-0.5-0.25-0.16797-0.050781-0.33984-0.078125-0.51562-0.078125-0.32422 0-0.57812 0.10547-0.76562 0.3125-0.1875 0.21094-0.28125 0.49609-0.28125 0.85938 0 0.35547 0.09375 0.63672 0.28125 0.84375 0.1875 0.21094 0.44141 0.3125 0.76562 0.3125 0.17578 0 0.34766-0.023438 0.51562-0.078125 0.16406-0.050781 0.33203-0.13281 0.5-0.25z"/>
  </symbol>
  <symbol id="b" overflow="visible">
   <path d="m2.3594-1.9219c-0.074219-0.03125-0.14844-0.050781-0.21875-0.0625-0.074219-0.019531-0.14844-0.03125-0.21875-0.03125-0.21875 0-0.38672 0.070313-0.5 0.20312-0.11719 0.13672-0.17188 0.33594-0.17188 0.59375v1.2188h-0.84375v-2.6406h0.84375v0.4375c0.10156-0.17578 0.22266-0.30078 0.35938-0.375 0.14453-0.082031 0.31641-0.125 0.51562-0.125h0.09375c0.03125 0 0.078125 0.007813 0.14062 0.015625z"/>
  </symbol>
  <symbol id="a" overflow="visible">
   <path d="m3.0469-1.3281v0.23438h-1.9844c0.019531 0.19922 0.09375 0.35156 0.21875 0.45312 0.125 0.09375 0.29688 0.14062 0.51562 0.14062 0.17578 0 0.35938-0.023438 0.54688-0.078125 0.1875-0.050781 0.37891-0.12891 0.57812-0.23438v0.65625c-0.21094 0.074219-0.41406 0.125-0.60938 0.15625-0.19922 0.039062-0.39844 0.0625-0.59375 0.0625-0.48047 0-0.85547-0.11719-1.125-0.35938-0.26172-0.23828-0.39062-0.57812-0.39062-1.0156s0.12891-0.77344 0.39062-1.0156c0.25781-0.25 0.61719-0.375 1.0781-0.375 0.41406 0 0.75 0.125 1 0.375s0.375 0.58594 0.375 1zm-0.875-0.28125c0-0.15625-0.046875-0.28125-0.14062-0.375-0.09375-0.10156-0.21484-0.15625-0.35938-0.15625-0.16797 0-0.30469 0.046875-0.40625 0.14062-0.10547 0.09375-0.16797 0.22656-0.1875 0.39062z"/>
  </symbol>
  <symbol id="e" overflow="visible">
   <path d="m1.5938-1.1875c-0.17969 0-0.3125 0.03125-0.40625 0.09375-0.085938 0.054688-0.125 0.14062-0.125 0.26562 0 0.10547 0.03125 0.1875 0.09375 0.25 0.070312 0.054687 0.17578 0.078125 0.3125 0.078125 0.15625 0 0.28516-0.050781 0.39062-0.15625 0.11328-0.11328 0.17188-0.25781 0.17188-0.4375v-0.09375zm1.2812-0.3125v1.5h-0.84375v-0.39062c-0.11719 0.15625-0.24609 0.27344-0.39062 0.34375-0.13672 0.070312-0.30859 0.10938-0.51562 0.10938-0.27344 0-0.49609-0.078125-0.67188-0.23438-0.16797-0.15625-0.25-0.36328-0.25-0.625 0-0.30078 0.10156-0.52344 0.3125-0.67188 0.21875-0.14453 0.55469-0.21875 1.0156-0.21875h0.5v-0.0625c0-0.13281-0.054688-0.23438-0.15625-0.29688-0.10547-0.0625-0.27344-0.09375-0.5-0.09375-0.17969 0-0.34375 0.023437-0.5 0.0625-0.15625 0.03125-0.30469 0.085937-0.4375 0.15625v-0.64062c0.17578-0.050781 0.35156-0.085938 0.53125-0.10938 0.1875-0.019531 0.375-0.03125 0.5625-0.03125 0.47656 0 0.82031 0.09375 1.0312 0.28125 0.20703 0.1875 0.3125 0.49609 0.3125 0.92188z"/>
  </symbol>
  <symbol id="d" overflow="visible">
   <path d="m1.3281-3.3906v0.75h0.875v0.60938h-0.875v1.1094c0 0.125 0.019531 0.21094 0.0625 0.25 0.050781 0.042969 0.14844 0.0625 0.29688 0.0625h0.4375v0.60938h-0.71875c-0.33594 0-0.57422-0.066406-0.71875-0.20312-0.13672-0.14453-0.20312-0.38281-0.20312-0.71875v-1.1094h-0.42188v-0.60938h0.42188v-0.75z"/>
  </symbol>
  <symbol id="l" overflow="visible">
   <path d="m2.2031-2.25v-1.4219h0.84375v3.6719h-0.84375v-0.375c-0.11719 0.14844-0.24609 0.25781-0.39062 0.32812-0.13672 0.070312-0.29688 0.10938-0.48438 0.10938-0.32422 0-0.58984-0.125-0.79688-0.375-0.21094-0.25781-0.3125-0.59375-0.3125-1s0.10156-0.73828 0.3125-1c0.20703-0.25781 0.47266-0.39062 0.79688-0.39062 0.1875 0 0.34766 0.039063 0.48438 0.10938 0.14453 0.074219 0.27344 0.1875 0.39062 0.34375zm-0.5625 1.7031c0.1875 0 0.32812-0.0625 0.42188-0.1875 0.09375-0.13281 0.14062-0.32812 0.14062-0.57812s-0.046875-0.44141-0.14062-0.57812c-0.09375-0.13281-0.23438-0.20312-0.42188-0.20312-0.17969 0-0.3125 0.070312-0.40625 0.20312-0.09375 0.13672-0.14062 0.32812-0.14062 0.57812s0.046875 0.44531 0.14062 0.57812c0.09375 0.125 0.22656 0.1875 0.40625 0.1875z"/>
  </symbol>
  <symbol id="f" overflow="visible">
   <path d="m1.8125-0.54688c0.17578 0 0.3125-0.0625 0.40625-0.1875 0.09375-0.13281 0.14062-0.32812 0.14062-0.57812s-0.046875-0.44141-0.14062-0.57812c-0.09375-0.13281-0.23047-0.20312-0.40625-0.20312-0.17969 0-0.32031 0.070312-0.42188 0.20312-0.09375 0.13672-0.14062 0.32812-0.14062 0.57812s0.046875 0.44531 0.14062 0.57812c0.10156 0.125 0.24219 0.1875 0.42188 0.1875zm-0.5625-1.7031c0.11328-0.15625 0.23828-0.26953 0.375-0.34375 0.14453-0.070312 0.3125-0.10938 0.5-0.10938 0.32031 0 0.58594 0.13281 0.79688 0.39062 0.20703 0.26172 0.3125 0.59375 0.3125 1s-0.10547 0.74219-0.3125 1c-0.21094 0.25-0.47656 0.375-0.79688 0.375-0.1875 0-0.35547-0.039062-0.5-0.10938-0.13672-0.070313-0.26172-0.17969-0.375-0.32812v0.375h-0.84375v-3.6719h0.84375z"/>
  </symbol>
  <symbol id="k" overflow="visible">
   <path d="m0.0625-2.6406h0.84375l0.70312 1.7969 0.60938-1.7969h0.84375l-1.1094 2.8906c-0.11719 0.28906-0.24609 0.49219-0.39062 0.60938-0.14844 0.125-0.34375 0.1875-0.59375 0.1875h-0.48438v-0.5625h0.26562c0.14453 0 0.25-0.027344 0.3125-0.078125 0.0625-0.042969 0.11328-0.12109 0.15625-0.23438l0.015625-0.078125z"/>
  </symbol>
  <symbol id="j" overflow="visible">
   <path d="m0.4375-3.5156h2.4531v0.6875h-1.5469v0.65625h1.4531v0.67188h-1.4531v1.5h-0.90625z"/>
  </symbol>
  <symbol id="v" overflow="visible">
   <path d="m2.4688-2.5625v0.64062c-0.17969-0.070313-0.35547-0.125-0.53125-0.15625-0.16797-0.039063-0.32422-0.0625-0.46875-0.0625-0.15625 0-0.27734 0.023437-0.35938 0.0625-0.074219 0.042969-0.10938 0.10547-0.10938 0.1875 0 0.0625 0.023438 0.11719 0.078125 0.15625 0.0625 0.03125 0.17188 0.058594 0.32812 0.078125l0.14062 0.015625c0.4375 0.054687 0.72656 0.14062 0.875 0.26562 0.14453 0.125 0.21875 0.32422 0.21875 0.59375 0 0.28125-0.10547 0.49609-0.3125 0.64062-0.21094 0.13672-0.51562 0.20312-0.92188 0.20312-0.17969 0-0.35938-0.015625-0.54688-0.046875-0.1875-0.019531-0.375-0.054688-0.5625-0.10938v-0.64062c0.16406 0.085937 0.33594 0.14844 0.51562 0.1875 0.17578 0.03125 0.35156 0.046875 0.53125 0.046875 0.16406 0 0.28906-0.019531 0.375-0.0625 0.082031-0.039062 0.125-0.10938 0.125-0.20312 0-0.070313-0.03125-0.125-0.09375-0.15625-0.054688-0.039063-0.16406-0.070313-0.32812-0.09375l-0.15625-0.015625c-0.375-0.050781-0.64062-0.14062-0.79688-0.26562-0.14844-0.125-0.21875-0.31641-0.21875-0.57812 0-0.28125 0.09375-0.48828 0.28125-0.625 0.19531-0.13281 0.49219-0.20312 0.89062-0.20312 0.15625 0 0.31641 0.011719 0.48438 0.03125 0.17578 0.023437 0.36328 0.058594 0.5625 0.10938z"/>
  </symbol>
  <symbol id="c" overflow="visible">
   <path d="m1.6562-2.0938c-0.1875 0-0.32812 0.070312-0.42188 0.20312-0.09375 0.125-0.14062 0.32031-0.14062 0.57812 0 0.25 0.046875 0.44531 0.14062 0.57812 0.09375 0.13672 0.23438 0.20312 0.42188 0.20312s0.32812-0.066406 0.42188-0.20312c0.10156-0.13281 0.15625-0.32812 0.15625-0.57812 0-0.25781-0.054687-0.45312-0.15625-0.57812-0.09375-0.13281-0.23438-0.20312-0.42188-0.20312zm0-0.60938c0.45703 0 0.8125 0.125 1.0625 0.375 0.25781 0.24219 0.39062 0.57812 0.39062 1.0156 0 0.42969-0.13281 0.76562-0.39062 1.0156-0.25 0.24219-0.60547 0.35938-1.0625 0.35938-0.44922 0-0.80469-0.11719-1.0625-0.35938-0.26172-0.25-0.39062-0.58594-0.39062-1.0156 0-0.4375 0.12891-0.77344 0.39062-1.0156 0.25781-0.25 0.61328-0.375 1.0625-0.375z"/>
  </symbol>
  <symbol id="i" overflow="visible">
   <path d="m0.375-1.0312v-1.6094h0.84375v0.26562 0.54688 0.42188c0 0.21094 0.003906 0.35938 0.015625 0.45312 0.007813 0.09375 0.03125 0.16406 0.0625 0.20312 0.03125 0.0625 0.070313 0.10938 0.125 0.14062 0.0625 0.023437 0.12891 0.03125 0.20312 0.03125 0.17578 0 0.3125-0.0625 0.40625-0.1875 0.10156-0.13281 0.15625-0.32812 0.15625-0.57812v-1.2969h0.84375v2.6406h-0.84375v-0.375c-0.125 0.14844-0.26172 0.25781-0.40625 0.32812-0.14844 0.070312-0.30469 0.10938-0.46875 0.10938-0.30469 0-0.53906-0.09375-0.70312-0.28125-0.15625-0.1875-0.23438-0.45703-0.23438-0.8125z"/>
  </symbol>
  <symbol id="h" overflow="visible">
   <path d="m3.0625-1.6094v1.6094h-0.84375v-1.2344c0-0.22656-0.007812-0.38281-0.015625-0.46875-0.011719-0.082031-0.03125-0.14453-0.0625-0.1875-0.03125-0.050781-0.078125-0.09375-0.14062-0.125-0.054688-0.03125-0.11719-0.046875-0.1875-0.046875-0.17969 0-0.32031 0.070312-0.42188 0.20312-0.09375 0.13672-0.14062 0.32422-0.14062 0.5625v1.2969h-0.84375v-2.6406h0.84375v0.39062c0.125-0.15625 0.25781-0.26953 0.40625-0.34375 0.14453-0.070312 0.30078-0.10938 0.46875-0.10938 0.3125 0 0.54688 0.09375 0.70312 0.28125s0.23438 0.46094 0.23438 0.8125z"/>
  </symbol>
  <symbol id="u" overflow="visible">
   <path d="m0.4375-3.5156h0.90625v3.1719c0 0.4375-0.12109 0.76562-0.35938 0.98438-0.23047 0.21875-0.58984 0.32812-1.0781 0.32812h-0.17188v-0.6875h0.14062c0.1875 0 0.32812-0.054688 0.42188-0.15625 0.09375-0.10547 0.14062-0.25781 0.14062-0.46875z"/>
  </symbol>
  <symbol id="g" overflow="visible">
   <path d="m2.8594-2.2031c0.10156-0.16406 0.22656-0.28906 0.375-0.375 0.14453-0.082031 0.30469-0.125 0.48438-0.125 0.30078 0 0.53125 0.09375 0.6875 0.28125 0.16406 0.1875 0.25 0.46094 0.25 0.8125v1.6094h-0.85938v-1.375-0.0625c0.007813-0.019531 0.015625-0.050781 0.015625-0.09375 0-0.1875-0.03125-0.32031-0.09375-0.40625-0.054688-0.082031-0.14062-0.125-0.26562-0.125-0.15625 0-0.28125 0.070312-0.375 0.20312-0.085937 0.125-0.125 0.3125-0.125 0.5625v1.2969h-0.85938v-1.375c0-0.28906-0.027344-0.47656-0.078125-0.5625-0.042969-0.082031-0.13281-0.125-0.26562-0.125-0.15625 0-0.28125 0.070312-0.375 0.20312-0.085938 0.125-0.125 0.3125-0.125 0.5625v1.2969h-0.84375v-2.6406h0.84375v0.39062c0.10156-0.15625 0.22266-0.26953 0.35938-0.34375 0.13281-0.070312 0.28125-0.10938 0.4375-0.10938 0.1875 0 0.34766 0.046875 0.48438 0.14062 0.14453 0.085938 0.25391 0.20312 0.32812 0.35938z"/>
  </symbol>
  <symbol id="t" overflow="visible">
   <path d="m0.40625-2.6406h0.84375v2.6406h-0.84375zm0-1.0312h0.84375v0.6875h-0.84375z"/>
  </symbol>
  <symbol id="s" overflow="visible">
   <path d="m0.40625-3.6719h0.84375v3.6719h-0.84375z"/>
  </symbol>
  <symbol id="r" overflow="visible">
   <path d="m2.1406-3.6719v0.5625h-0.46875c-0.11719 0-0.19922 0.023437-0.25 0.0625-0.042969 0.042969-0.0625 0.11719-0.0625 0.21875v0.1875h0.71875v0.60938h-0.71875v2.0312h-0.84375v-2.0312h-0.42188v-0.60938h0.42188v-0.1875c0-0.28125 0.078125-0.48828 0.23438-0.625 0.16406-0.14453 0.41406-0.21875 0.75-0.21875z"/>
  </symbol>
  <symbol id="q" overflow="visible">
   <path d="m3.0625-1.6094v1.6094h-0.84375v-1.2188c0-0.23828-0.007812-0.39844-0.015625-0.48438-0.011719-0.082031-0.03125-0.14453-0.0625-0.1875-0.03125-0.050781-0.078125-0.09375-0.14062-0.125-0.054688-0.03125-0.11719-0.046875-0.1875-0.046875-0.17969 0-0.32031 0.070312-0.42188 0.20312-0.09375 0.13672-0.14062 0.32422-0.14062 0.5625v1.2969h-0.84375v-3.6719h0.84375v1.4219c0.125-0.15625 0.25781-0.26953 0.40625-0.34375 0.14453-0.070312 0.30078-0.10938 0.46875-0.10938 0.3125 0 0.54688 0.09375 0.70312 0.28125s0.23438 0.46094 0.23438 0.8125z"/>
  </symbol>
  <symbol id="p" overflow="visible">
   <path d="m0.4375-3.5156h1.0156l1.2812 2.4062v-2.4062h0.85938v3.5156h-1.0156l-1.2812-2.4219v2.4219h-0.85938z"/>
  </symbol>
  <symbol id="o" overflow="visible">
   <path d="m0.4375-3.5156h1.5156c0.44531 0 0.78906 0.10156 1.0312 0.29688 0.23828 0.19922 0.35938 0.48047 0.35938 0.84375 0 0.375-0.12109 0.66406-0.35938 0.85938-0.24219 0.19922-0.58594 0.29688-1.0312 0.29688h-0.60938v1.2188h-0.90625zm0.90625 0.65625v0.98438h0.51562c0.16406 0 0.29688-0.039062 0.39062-0.125 0.10156-0.09375 0.15625-0.21875 0.15625-0.375s-0.054688-0.27344-0.15625-0.35938c-0.09375-0.082031-0.22656-0.125-0.39062-0.125z"/>
  </symbol>
  <symbol id="n" overflow="visible">
   <path d="m0.40625-2.6406h0.84375v2.5938c0 0.35156-0.089844 0.625-0.26562 0.8125-0.16797 0.1875-0.41406 0.28125-0.73438 0.28125h-0.40625v-0.5625h0.14062c0.15625 0 0.26562-0.039063 0.32812-0.10938 0.0625-0.074219 0.09375-0.21484 0.09375-0.42188zm0-1.0312h0.84375v0.6875h-0.84375z"/>
  </symbol>
  <symbol id="m" overflow="visible">
   <path d="m2.5312-2.5625v0.6875c-0.11719-0.070312-0.23047-0.125-0.34375-0.15625-0.11719-0.039062-0.23438-0.0625-0.35938-0.0625-0.23047 0-0.41406 0.070312-0.54688 0.20312-0.125 0.13672-0.1875 0.32812-0.1875 0.57812 0 0.24219 0.0625 0.43359 0.1875 0.57812 0.13281 0.13672 0.31641 0.20312 0.54688 0.20312 0.13281 0 0.25781-0.019531 0.375-0.0625 0.125-0.039062 0.23438-0.097656 0.32812-0.17188v0.6875c-0.125 0.054688-0.25781 0.085938-0.39062 0.10938-0.13672 0.019531-0.27344 0.03125-0.40625 0.03125-0.48047 0-0.85547-0.11719-1.125-0.35938-0.27344-0.25-0.40625-0.58594-0.40625-1.0156 0-0.4375 0.13281-0.77344 0.40625-1.0156 0.26953-0.25 0.64453-0.375 1.125-0.375 0.13281 0 0.26953 0.015625 0.40625 0.046875 0.13281 0.023438 0.26562 0.054688 0.39062 0.09375z"/>
  </symbol>
 </defs>
 <g>
  <path d="m521.38 55.035c28 4.8281 51.172 29.93 55.035 34.758l42.484 80.137 64.691 8.6914c7.7227 0.96484 16.414 7.7227 16.414 15.449v16.414c0 7.7227-6.7578 13.516-13.516 13.516h-37.656c6.7578 6.7578 37.656 28 38.621 102.34 0.96484 62.758 0.96484 124.55 0.96484 187.31 0 10.621-9.6562 20.277-20.277 20.277h-92.691c-11.586 0-21.242-9.6562-21.242-20.277v-25.102c-136.14 8.6914-272.28 8.6914-409.38 0v25.102c0 10.621-8.6914 20.277-20.277 20.277h-92.691c-11.586 0-20.277-9.6562-20.277-20.277v-187.31c0.96484-74.344 32.828-95.586 39.586-102.34h-37.656c-7.7227 0-13.516-5.793-13.516-13.516v-16.414c0-7.7227 8.6914-14.484 15.449-15.449l64.691-8.6914 43.449-80.137c3.8633-4.8281 26.07-29.93 54.07-34.758 107.17-15.449 237.52-15.449 343.72 0zm-75.309 339.86c5.793 0 10.621-4.8281 10.621-10.621 0-6.7578-4.8281-11.586-10.621-11.586h-192.14c-6.7578 0-11.586 4.8281-11.586 11.586 0 5.793 4.8281 10.621 11.586 10.621zm0-42.484c5.793 0 10.621-5.793 10.621-11.586 0-6.7578-4.8281-11.586-10.621-11.586h-192.14c-6.7578 0-11.586 4.8281-11.586 11.586 0 5.793 4.8281 11.586 11.586 11.586zm138.07-165.1c-12.551-25.102-24.137-49.242-36.691-73.379-8.6914-13.516-19.309-17.379-28.965-20.277-112-13.516-224.96-13.516-336.96 0-10.621 2.8984-20.277 6.7578-28.965 20.277-12.551 24.137-25.102 48.277-37.656 73.379zm-521.38 140h72.414l28.965 70.484h-101.38zm573.52 0h-71.449l-29.93 70.484h101.38z" fill-rule="evenodd"/>
  <use y="548.414062" xlink:href="#w"/>
  <use x="3.542969" y="548.414062" xlink:href="#b"/>
  <use x="5.921875" y="548.414062" xlink:href="#a"/>
  <use x="9.199219" y="548.414062" xlink:href="#e"/>
  <use x="12.457031" y="548.414062" xlink:href="#d"/>
  <use x="14.761719" y="548.414062" xlink:href="#a"/>
  <use x="18.039062" y="548.414062" xlink:href="#l"/>
  <use x="23.171875" y="548.414062" xlink:href="#f"/>
  <use x="26.628906" y="548.414062" xlink:href="#k"/>
  <use x="31.457031" y="548.414062" xlink:href="#j"/>
  <use x="34.753906" y="548.414062" xlink:href="#e"/>
  <use x="38.011719" y="548.414062" xlink:href="#v"/>
  <use x="40.886719" y="548.414062" xlink:href="#c"/>
  <use x="44.203125" y="548.414062" xlink:href="#f"/>
  <use x="47.660156" y="548.414062" xlink:href="#b"/>
  <use x="50.039062" y="548.414062" xlink:href="#i"/>
  <use x="53.476562" y="548.414062" xlink:href="#h"/>
  <use x="58.59375" y="548.414062" xlink:href="#u"/>
  <use x="60.390625" y="548.414062" xlink:href="#e"/>
  <use x="63.648437" y="548.414062" xlink:href="#g"/>
  <use x="68.675781" y="548.414062" xlink:href="#t"/>
  <use x="70.332031" y="548.414062" xlink:href="#s"/>
  <use y="553.242188" xlink:href="#r"/>
  <use x="2.101562" y="553.242188" xlink:href="#b"/>
  <use x="4.480469" y="553.242188" xlink:href="#c"/>
  <use x="7.796875" y="553.242188" xlink:href="#g"/>
  <use x="14.507812" y="553.242188" xlink:href="#d"/>
  <use x="16.816406" y="553.242188" xlink:href="#q"/>
  <use x="20.253906" y="553.242188" xlink:href="#a"/>
  <use x="25.207031" y="553.242188" xlink:href="#p"/>
  <use x="29.25" y="553.242188" xlink:href="#c"/>
  <use x="32.566406" y="553.242188" xlink:href="#i"/>
  <use x="36" y="553.242188" xlink:href="#h"/>
  <use x="41.121094" y="553.242188" xlink:href="#o"/>
  <use x="44.65625" y="553.242188" xlink:href="#b"/>
  <use x="47.039062" y="553.242188" xlink:href="#c"/>
  <use x="50.355469" y="553.242188" xlink:href="#n"/>
  <use x="52.007812" y="553.242188" xlink:href="#a"/>
  <use x="55.285156" y="553.242188" xlink:href="#m"/>
  <use x="58.144531" y="553.242188" xlink:href="#d"/>
 </g>
</svg>
